<?xml version="1.0" encoding="utf-8"?>
<!-- Generator: Adobe Illustrator 16.0.0, SVG Export Plug-In . SVG Version: 6.00 Build 0)  -->
<!DOCTYPE svg PUBLIC "-//W3C//DTD SVG 1.1//EN" "http://www.w3.org/Graphics/SVG/1.1/DTD/svg11.dtd">
<svg version="1.1" id="Layer_1" xmlns="http://www.w3.org/2000/svg" xmlns:xlink="http://www.w3.org/1999/xlink" x="0px" y="0px"
	 width="66px" height="66px" viewBox="0 0 66 66" enable-background="new 0 0 66 66" xml:space="preserve">
<g>
	<path fill="#FFF200" d="M25.534,32.009h-8.5c0.054,0.788,0.415,1.423,1.079,1.906c0.667,0.482,1.428,0.724,2.284,0.724
		c1.359,0,2.391-0.428,3.099-1.284l1.305,1.426c-1.169,1.211-2.691,1.815-4.566,1.815c-1.522,0-2.817-0.507-3.884-1.521
		c-1.067-1.011-1.601-2.371-1.601-4.076c0-1.707,0.544-3.062,1.631-4.067c1.087-1.006,2.369-1.509,3.844-1.509
		c1.474,0,2.728,0.446,3.762,1.336c1.032,0.89,1.548,2.117,1.548,3.679V32.009z M17.034,30.214h6.218c0-0.91-0.285-1.61-0.857-2.099
		c-0.57-0.49-1.272-0.734-2.109-0.734c-0.835,0-1.586,0.254-2.252,0.764C17.366,28.655,17.034,29.346,17.034,30.214z"/>
	<path fill="#FFF200" d="M30.326,30.562v5.871h-2.285V25.587h2.285v1.977c0.366-0.666,0.873-1.189,1.518-1.569
		c0.646-0.381,1.342-0.571,2.088-0.571c1.225,0,2.213,0.375,2.967,1.122c0.754,0.748,1.131,1.828,1.131,3.241v6.646h-2.282V30.48
		c0-1.998-0.83-2.998-2.487-2.998c-0.788,0-1.475,0.262-2.058,0.786C30.617,28.791,30.326,29.556,30.326,30.562z"/>
	<path fill="#FFF200" d="M51.242,25.587v9.459c0,1.917-0.52,3.354-1.56,4.311c-1.04,0.959-2.376,1.438-4.007,1.438
		c-1.632,0-3.104-0.51-4.425-1.528l1.081-1.733c1.062,0.801,2.131,1.202,3.212,1.202c1.079,0,1.937-0.278,2.567-0.835
		c0.633-0.559,0.948-1.447,0.948-2.672v-1.386c-0.34,0.64-0.826,1.149-1.457,1.53c-0.633,0.38-1.342,0.57-2.13,0.57
		c-1.442,0-2.624-0.503-3.548-1.508c-0.925-1.006-1.387-2.257-1.387-3.751c0-1.495,0.462-2.745,1.387-3.751
		c0.924-1.006,2.103-1.509,3.537-1.509c1.434,0,2.599,0.591,3.496,1.773v-1.61H51.242z M42.781,30.592
		c0,0.89,0.275,1.658,0.826,2.303c0.55,0.646,1.291,0.969,2.223,0.969c0.93,0,1.685-0.313,2.261-0.938
		c0.578-0.625,0.867-1.404,0.867-2.334c0-0.931-0.293-1.72-0.876-2.365c-0.584-0.645-1.339-0.969-2.264-0.969
		c-0.924,0-1.661,0.333-2.211,1C43.057,28.924,42.781,29.702,42.781,30.592z"/>
</g>
<circle fill="none" stroke="#FFF200" stroke-width="2.1932" stroke-miterlimit="10" cx="33" cy="33.11" r="31.712"/>
</svg>
