<?xml version="1.0" encoding="utf-8"?>
<!-- Generator: Adobe Illustrator 16.0.0, SVG Export Plug-In . SVG Version: 6.00 Build 0)  -->
<!DOCTYPE svg PUBLIC "-//W3C//DTD SVG 1.1//EN" "http://www.w3.org/Graphics/SVG/1.1/DTD/svg11.dtd">
<svg version="1.1" id="Layer_1" xmlns="http://www.w3.org/2000/svg" xmlns:xlink="http://www.w3.org/1999/xlink" x="0px" y="0px"
	 width="66px" height="66px" viewBox="0 0 66 66" enable-background="new 0 0 66 66" xml:space="preserve">
<g>
	<path fill="#FFF200" d="M28.603,35.632h-8.54c0.055,0.793,0.417,1.432,1.085,1.916c0.669,0.484,1.434,0.727,2.293,0.727
		c1.365,0,2.403-0.43,3.113-1.289l1.311,1.432c-1.175,1.217-2.704,1.824-4.587,1.824c-1.53,0-2.83-0.51-3.902-1.527
		c-1.072-1.016-1.607-2.381-1.607-4.094c0-1.714,0.545-3.076,1.638-4.086c1.092-1.011,2.378-1.516,3.86-1.516
		c1.481,0,2.741,0.448,3.778,1.342c1.037,0.895,1.557,2.126,1.557,3.696V35.632z M20.063,33.831h6.247
		c0-0.915-0.287-1.619-0.861-2.109c-0.573-0.492-1.279-0.737-2.119-0.737c-0.84,0-1.594,0.255-2.264,0.767
		C20.397,32.264,20.063,32.958,20.063,33.831z"/>
	<path fill="#FFF200" d="M38.883,36.821c0,1.037-0.377,1.867-1.127,2.486c-0.751,0.623-1.714,0.934-2.887,0.934
		c-0.792,0-1.615-0.145-2.468-0.43c-0.854-0.289-1.607-0.691-2.263-1.209l1.106-1.781c1.27,0.955,2.497,1.434,3.686,1.434
		c0.519,0,0.93-0.121,1.229-0.359s0.45-0.543,0.45-0.91c0-0.547-0.724-1.039-2.17-1.475c-0.109-0.041-0.192-0.068-0.247-0.082
		c-2.266-0.615-3.399-1.639-3.399-3.073c0-1.01,0.392-1.818,1.177-2.427c0.785-0.607,1.805-0.912,3.063-0.912
		c1.256,0,2.443,0.369,3.563,1.106l-0.861,1.7c-0.887-0.586-1.85-0.88-2.887-0.88c-0.547,0-0.99,0.1-1.332,0.297
		c-0.341,0.198-0.512,0.495-0.512,0.891c0,0.355,0.178,0.615,0.533,0.779c0.245,0.123,0.59,0.239,1.033,0.348
		s0.837,0.219,1.179,0.328c0.341,0.109,0.671,0.232,0.993,0.369c0.32,0.137,0.666,0.326,1.033,0.572
		C38.514,35.019,38.883,35.784,38.883,36.821z"/>
	<path fill="#FFF200" d="M44.31,31.025v5.531c0,0.518,0.136,0.93,0.409,1.238c0.273,0.307,0.656,0.461,1.146,0.461
		c0.492,0,0.963-0.24,1.414-0.719l0.942,1.619c-0.807,0.723-1.697,1.086-2.674,1.086s-1.808-0.338-2.498-1.016
		c-0.689-0.674-1.035-1.586-1.035-2.732v-5.468h-1.37v-1.843h1.37v-3.42h2.295v3.42h2.868v1.843H44.31z"/>
</g>
<circle fill="none" stroke="#FFF200" stroke-width="2.2031" stroke-miterlimit="10" cx="33" cy="33" r="31.856"/>
</svg>
