<svg version="1.1" id="Layer_1" xmlns="http://www.w3.org/2000/svg" xmlns:xlink="http://www.w3.org/1999/xlink" x="0px" y="0px" width="32px" height="32px" viewBox="0 0 30 30" enable-background="new 0 0 30 30" xml:space="preserve">
<g>
	<path fill="none" stroke="#FFF200" stroke-width="0.6913" stroke-miterlimit="10" d="M3.141,29.484V13.933
		c0,0,5.902-2.058,2.201-10.662l5.003-2.433c0,0,4.102,6.171,9.004,0l4.403,2.532c0,0-1.78,8.905,2.702,10.001v16.113
		c0,0-10.807,0.535-12.108-1.384C14.346,28.101,15.346,30.285,3.141,29.484z"></path>
	<path fill="none" stroke="#FFF200" stroke-width="0.6913" stroke-miterlimit="10" d="M10.345,0.838"></path>
	<path fill="none" stroke="#FFF200" stroke-width="0.6913" stroke-miterlimit="10" d="M10.345,0.838c0,0-1,6.635,4.153,11.438
		L14.346,28.4"></path>
	<path fill="none" stroke="#FFF200" stroke-width="0.6913" stroke-miterlimit="10" d="M14.498,12.275c0,0,3.951-2.165,4.851-11.438"></path>
	<rect x="3.141" y="15.381" fill="#FFF200" width="23.313" height="2.304"></rect>
	<rect x="3.141" y="19.331" fill="#FFF200" width="23.313" height="2.139"></rect>
</g>
</svg>