<svg version="1.1" id="Layer_1" xmlns="http://www.w3.org/2000/svg" xmlns:xlink="http://www.w3.org/1999/xlink" x="0px" y="0px" width="30px" height="30px" viewBox="0 0 30 30" enable-background="new 0 0 30 30" xml:space="preserve">
<g>
	<path fill="none" stroke="#FFF200" stroke-width="1.0314" stroke-miterlimit="10" d="M25.425,8.666
		c-0.874,0-1.685,0.266-2.339,0.715c-0.049-3.645-3.213-6.584-7.107-6.584c-3.032,0-5.619,1.781-6.64,4.291
		C8.418,6.408,7.258,6,5.997,6c-2.985,0-5.403,2.268-5.403,5.069c0,2.567,1.406,4.516,4.161,5.02l0.513,0.048h20.416
		c2.197,0,3.722-1.672,3.722-3.736C29.405,10.338,27.624,8.666,25.425,8.666z"></path>
	<g id="Page-1_17_">
		<g id="icon-37-raindrop_10_">
			<path id="raindrop_10_" fill="#FFF200" d="M3.496,21.199c0-0.768,1.211-2.49,1.211-2.49s1.213,1.723,1.213,2.49
				c0,0.631-0.544,1.145-1.213,1.145C4.039,22.344,3.496,21.83,3.496,21.199z"></path>
		</g>
	</g>
	<g id="Page-1_16_">
		<g id="icon-37-raindrop_9_">
			<path id="raindrop_9_" fill="#FFF200" d="M12.642,25c0-0.965,1.526-3.131,1.526-3.131s1.524,2.166,1.524,3.131
				c0,0.797-0.683,1.443-1.524,1.443C13.326,26.443,12.642,25.797,12.642,25z"></path>
		</g>
	</g>
	<g id="Page-1_15_">
		<g id="icon-37-raindrop_8_">
			<path id="raindrop_8_" fill="#FFF200" d="M17.336,22.82c0-1.127,1.792-3.672,1.792-3.672s1.79,2.545,1.79,3.672
				c0,0.938-0.805,1.701-1.79,1.701C18.141,24.521,17.336,23.758,17.336,22.82z"></path>
		</g>
	</g>
	<g id="Page-1_1_">
		<g id="icon-37-raindrop_1_">
			<path id="raindrop_1_" fill="#FFF200" d="M22.134,25.023c0-1.453,2.301-4.725,2.301-4.725s2.298,3.271,2.298,4.725
				c0,1.203-1.027,2.18-2.298,2.18C23.165,27.203,22.134,26.227,22.134,25.023z"></path>
		</g>
	</g>
	<g id="Page-1_2_">
		<g id="icon-37-raindrop_2_">
			<path id="raindrop_2_" fill="#FFF200" d="M7.533,22.563c0-1.211,1.916-3.934,1.916-3.934s1.916,2.723,1.916,3.934
				c0,1-0.859,1.814-1.916,1.814C8.39,24.377,7.533,23.563,7.533,22.563z"></path>
		</g>
	</g>
</g>
</svg>