<svg version="1.1" id="Layer_1" xmlns="http://www.w3.org/2000/svg" xmlns:xlink="http://www.w3.org/1999/xlink" x="0px" y="0px" width="30px" height="30px" viewBox="0 0 30 30" enable-background="new 0 0 30 30" xml:space="preserve">
<path fill="none" stroke="#FFF200" stroke-width="0.925" stroke-miterlimit="10" d="M11.652,17.72
	c-0.658-1.033-3.749-0.814-4.054-1.937c-1.221-4.482,0.305-8.77,4.055-11.742c-1.8,0.225-3.582,0.842-5.214,1.883
	C0.551,9.676-1.181,17.49,2.572,23.378c3.751,5.888,11.566,7.619,17.454,3.866c1.254-0.799,2.32-1.785,3.185-2.896
	c-4.592,1.753-10.251-0.104-13.506-3.845C9.323,20.063,11.975,18.227,11.652,17.72z"></path>
<polygon fill="#FFF200" points="26.12,2.535 26.41,2.015 26.398,2.609 26.909,2.304 26.604,2.814 27.199,2.804 26.678,3.093 
	27.199,3.382 26.604,3.373 26.909,3.883 26.398,3.577 26.41,4.173 26.12,3.652 25.831,4.173 25.841,3.577 25.33,3.883 25.636,3.373 
	25.041,3.382 25.562,3.093 25.041,2.804 25.636,2.814 25.33,2.304 25.841,2.609 25.831,2.015 "></polygon>
<polygon fill="#FFF200" points="24.362,8.197 24.777,7.454 24.763,8.305 25.49,7.867 25.054,8.596 25.905,8.582 25.162,8.995 
	25.905,9.409 25.054,9.394 25.49,10.124 24.763,9.686 24.777,10.537 24.362,9.792 23.949,10.537 23.965,9.686 23.234,10.124 
	23.672,9.394 22.823,9.409 23.564,8.995 22.823,8.582 23.672,8.596 23.234,7.867 23.965,8.305 23.949,7.454 "></polygon>
<polygon fill="#FFF200" points="19.133,1.892 19.794,0.702 19.773,2.063 20.938,1.362 20.238,2.53 21.6,2.507 20.409,3.168 
	21.6,3.829 20.238,3.807 20.938,4.973 19.773,4.274 19.794,5.635 19.133,4.445 18.473,5.635 18.495,4.274 17.327,4.973 
	18.027,3.807 16.666,3.829 17.855,3.168 16.666,2.507 18.027,2.53 17.327,1.362 18.495,2.063 18.473,0.702 "></polygon>
</svg>