<svg version="1.1" id="Layer_1" xmlns="http://www.w3.org/2000/svg" xmlns:xlink="http://www.w3.org/1999/xlink" x="0px" y="0px" width="30px" height="30px" viewBox="0 0 30 30" enable-background="new 0 0 30 30" xml:space="preserve">
<path fill="none" stroke="#FFF200" stroke-width="0.8949" stroke-miterlimit="10" d="M14.597,15.508
	c-0.45-0.705-2.565-0.556-2.774-1.325c-0.835-3.067,0.209-5.999,2.774-8.034c-1.232,0.154-2.45,0.577-3.566,1.288
	c-4.029,2.567-5.213,7.915-2.645,11.941c2.564,4.027,7.912,5.213,11.941,2.646c0.857-0.548,1.585-1.221,2.178-1.982
	c-3.142,1.199-7.014-0.069-9.24-2.628C13.002,17.112,14.818,15.855,14.597,15.508z"></path>
<polygon fill="#FFF200" points="25.836,4.225 26.035,3.869 26.027,4.275 26.376,4.066 26.168,4.415 26.574,4.409 26.219,4.606 
	26.574,4.804 26.168,4.798 26.376,5.147 26.027,4.938 26.035,5.346 25.836,4.989 25.639,5.346 25.646,4.938 25.297,5.147 
	25.506,4.798 25.099,4.804 25.454,4.606 25.099,4.409 25.506,4.415 25.297,4.066 25.646,4.275 25.639,3.869 "></polygon>
<polygon fill="#FFF200" points="24.634,8.098 24.918,7.59 24.907,8.172 25.405,7.872 25.106,8.371 25.689,8.362 25.181,8.645 
	25.689,8.928 25.106,8.918 25.405,9.417 24.907,9.117 24.918,9.699 24.634,9.191 24.351,9.699 24.361,9.117 23.863,9.417 
	24.163,8.918 23.58,8.928 24.091,8.645 23.58,8.362 24.163,8.371 23.863,7.872 24.361,8.172 24.351,7.59 "></polygon>
<polygon fill="#FFF200" points="21.056,5.784 21.509,4.97 21.495,5.901 22.291,5.423 21.813,6.222 22.744,6.206 21.932,6.658 
	22.744,7.11 21.813,7.095 22.291,7.893 21.495,7.414 21.509,8.345 21.056,7.531 20.604,8.345 20.621,7.414 19.821,7.893 20.3,7.095 
	19.368,7.11 20.184,6.658 19.368,6.206 20.3,6.222 19.821,5.423 20.621,5.901 20.604,4.97 "></polygon>
<g>
	<defs>
		<circle id="SVGID_1_" cx="14.766" cy="14.767" r="14.766"></circle>
	</defs>
	<clippath id="SVGID_2_">
		<use xlink:href="#SVGID_1_" overflow="visible"></use>
	</clippath>
	<g clip-path="url(#SVGID_2_)">
		<path fill="none" stroke="#FFF200" stroke-width="0.8637" stroke-miterlimit="10" d="M-2.728,9.711c0,0,3.446-2.462,8.422,0
			c4.912,2.429,8.239-0.13,8.205-0.108c0.686-0.363,3.106-2.096,7.99,0.108c5.003,2.257,7.139,0.492,7.881,0"></path>
		<path fill="none" stroke="#FFF200" stroke-width="0.8637" stroke-miterlimit="10" d="M-2.728,14.556c0,0,3.446-2.461,8.422,0
			c4.912,2.429,8.239-0.13,8.205-0.108c0.686-0.365,3.106-2.096,7.99,0.108c5.003,2.256,7.139,0.492,7.881,0"></path>
		<path fill="none" stroke="#FFF200" stroke-width="0.8637" stroke-miterlimit="10" d="M-2.728,19.399c0,0,3.446-2.459,8.422,0
			c4.912,2.431,8.239-0.131,8.205-0.106c0.686-0.364,3.106-2.096,7.99,0.106c5.003,2.257,7.139,0.493,7.881,0"></path>
		<path fill="none" stroke="#FFF200" stroke-width="0.8637" stroke-miterlimit="10" d="M-2.728,24.243c0,0,3.446-2.461,8.422,0
			c4.912,2.431,8.239-0.131,8.205-0.105c0.686-0.366,3.106-2.097,7.99,0.105c5.003,2.258,7.139,0.492,7.881,0"></path>
		<path fill="none" stroke="#FFF200" stroke-width="0.8637" stroke-miterlimit="10" d="M-2.728,4.867c0,0,3.446-2.46,8.422,0
			c4.912,2.429,8.239-0.13,8.205-0.107c0.686-0.364,3.106-2.097,7.99,0.107c5.003,2.256,7.139,0.492,7.881,0"></path>
	</g>
</g>
</svg>