<?xml version="1.0" encoding="utf-8"?>
<!-- Generator: Adobe Illustrator 16.0.0, SVG Export Plug-In . SVG Version: 6.00 Build 0)  -->
<!DOCTYPE svg PUBLIC "-//W3C//DTD SVG 1.1//EN" "http://www.w3.org/Graphics/SVG/1.1/DTD/svg11.dtd">
<svg version="1.1" id="Layer_1" xmlns="http://www.w3.org/2000/svg" xmlns:xlink="http://www.w3.org/1999/xlink" x="0px" y="0px"
	 width="66px" height="66px" viewBox="0 0 66 66" enable-background="new 0 0 66 66" xml:space="preserve">
<g>
	<g>
		<path fill="#FFF200" d="M40.318,46.822l-0.49,2.016c-1.477,0.582-2.656,1.025-3.537,1.33c-0.881,0.307-1.902,0.461-3.065,0.461
			c-1.792,0-3.183-0.436-4.174-1.311c-0.993-0.873-1.49-1.98-1.49-3.324c0-0.521,0.038-1.055,0.112-1.6
			c0.075-0.545,0.196-1.16,0.358-1.848l1.847-6.535c0.166-0.627,0.306-1.22,0.417-1.778c0.114-0.561,0.168-1.071,0.168-1.535
			c0-0.836-0.171-1.418-0.515-1.745c-0.345-0.33-1.003-0.494-1.975-0.494c-0.479,0-0.97,0.074-1.471,0.224
			c-0.501,0.149-0.931,0.291-1.292,0.426l0.494-2.016c1.21-0.492,2.367-0.913,3.472-1.264c1.106-0.352,2.153-0.527,3.14-0.527
			c1.777,0,3.148,0.43,4.111,1.288c0.961,0.858,1.445,1.973,1.445,3.347c0,0.284-0.033,0.783-0.102,1.499
			c-0.066,0.717-0.189,1.373-0.369,1.972l-1.842,6.512c-0.148,0.523-0.283,1.121-0.4,1.793c-0.123,0.67-0.18,1.178-0.18,1.521
			c0,0.865,0.189,1.453,0.578,1.768s1.059,0.471,2.012,0.471c0.447,0,0.955-0.078,1.52-0.234
			C39.658,47.08,40.068,46.941,40.318,46.822z M40.791,19.491c0,1.135-0.43,2.102-1.287,2.899c-0.857,0.799-1.891,1.197-3.1,1.197
			c-1.211,0-2.248-0.398-3.111-1.197c-0.866-0.798-1.3-1.764-1.3-2.899c0-1.132,0.434-2.103,1.3-2.909
			c0.863-0.806,1.9-1.208,3.111-1.208c1.209,0,2.242,0.402,3.1,1.208S40.791,18.358,40.791,19.491z"/>
	</g>
	<circle fill="none" stroke="#FFF200" stroke-width="2.2027" stroke-miterlimit="10" cx="33" cy="33" r="31.85"/>
</g>
</svg>
