<?xml version="1.0" encoding="utf-8"?>
<!-- Generator: Adobe Illustrator 16.0.0, SVG Export Plug-In . SVG Version: 6.00 Build 0)  -->
<!DOCTYPE svg PUBLIC "-//W3C//DTD SVG 1.1//EN" "http://www.w3.org/Graphics/SVG/1.1/DTD/svg11.dtd">
<svg version="1.1" id="Layer_1" xmlns="http://www.w3.org/2000/svg" xmlns:xlink="http://www.w3.org/1999/xlink" x="0px" y="0px"
	 width="110.34px" height="110.34px" viewBox="0 0 110.34 110.34" enable-background="new 0 0 110.34 110.34" xml:space="preserve">
<g>
	<path fill="#FFF200" d="M53.452,34.102c-0.026,0-0.054-0.003-0.08-0.003c-3.875,0.132-7.013,0.989-9.554,2.252
		c-1.869,0.964-3.575,2.206-5.051,3.68c-0.07,0.071-0.137,0.143-0.206,0.214c-0.018,0.019-0.036,0.037-0.052,0.055
		c-4.129,4.41-5.149,9.699-5.396,10.603C50.702,50.903,53.412,34.34,53.452,34.102z"/>
	<circle fill="none" stroke="#FFF200" stroke-width="0.9597" stroke-miterlimit="10" cx="55.947" cy="57.885" r="24.178"/>
	<path fill="#FFF200" d="M51.441,33.491c0.037,0,0.075,0.966,0.111,0.957c12.125-3.319,21.97,6.843,21.996,6.87
		c5.897,6.097,6.109,14.499,6.456,15.77C55.303,57.087,51.497,33.826,51.441,33.491z"/>
	<path fill="none" stroke="#FFF200" stroke-width="1.1085" stroke-miterlimit="10" d="M44.851,67.021
		c1.15,3.407,4.723,6.813,10.819,6.813"/>
	<circle fill="none" stroke="#FFF200" stroke-width="3.6619" stroke-miterlimit="10" cx="54.809" cy="55.15" r="52.948"/>
	<path fill="#FFF200" d="M65.713,84.579c-0.124,5.996-4.67,10.818-10.269,10.818c-5.678,0-10.279-4.954-10.279-11.068
		c0-0.067,0.008-0.134,0.009-0.202C39.727,82.1,20.761,95.78,20.761,95.78c38.91,25.761,54.167,8.215,65.829,0.963
		C86.59,96.743,68.209,83.609,65.713,84.579z"/>
</g>
</svg>
