<?xml version="1.0" encoding="utf-8"?>
<!-- Generator: Adobe Illustrator 16.0.0, SVG Export Plug-In . SVG Version: 6.00 Build 0)  -->
<!DOCTYPE svg PUBLIC "-//W3C//DTD SVG 1.1//EN" "http://www.w3.org/Graphics/SVG/1.1/DTD/svg11.dtd">
<svg version="1.1" id="Layer_1" xmlns="http://www.w3.org/2000/svg" xmlns:xlink="http://www.w3.org/1999/xlink" x="0px" y="0px"
	 width="31.25px" height="31.083px" viewBox="0 0 31.25 31.083" enable-background="new 0 0 31.25 31.083" xml:space="preserve">
<g>
	<path fill="none" stroke="#FFF200" stroke-width="0.8497" stroke-miterlimit="10" d="M16.791,5.573"/>
	<circle fill="none" stroke="#FFF200" stroke-width="1.0374" stroke-miterlimit="10" cx="15.625" cy="15.542" r="15"/>
	<g>
		<g>
			<polygon fill="none" stroke="#FFF200" stroke-width="0.6373" stroke-miterlimit="10" points="13.182,11.206 10.668,9.718 
				8.296,11.206 8.296,25.155 13.182,25.155 			"/>
			<polygon fill="none" stroke="#FFF200" stroke-width="0.6373" stroke-miterlimit="10" points="18.068,7.417 15.624,5.93 
				13.182,7.417 13.182,25.155 18.068,25.155 			"/>
			<polygon fill="none" stroke="#FFF200" stroke-width="0.6373" stroke-miterlimit="10" points="22.953,13.79 20.51,12.302 
				18.068,13.79 18.068,25.155 22.953,25.155 			"/>
		</g>
		<g>
			
				<line fill="none" stroke="#FFF200" stroke-width="0.4248" stroke-miterlimit="10" x1="9.146" y1="13.846" x2="10.314" y2="13.846"/>
			
				<line fill="none" stroke="#FFF200" stroke-width="0.4248" stroke-miterlimit="10" x1="11.057" y1="13.846" x2="12.226" y2="13.846"/>
			
				<line fill="none" stroke="#FFF200" stroke-width="0.4248" stroke-miterlimit="10" x1="9.146" y1="15.758" x2="10.314" y2="15.758"/>
			
				<line fill="none" stroke="#FFF200" stroke-width="0.4248" stroke-miterlimit="10" x1="11.057" y1="15.758" x2="12.226" y2="15.758"/>
			
				<line fill="none" stroke="#FFF200" stroke-width="0.4248" stroke-miterlimit="10" x1="9.146" y1="17.67" x2="10.314" y2="17.67"/>
			
				<line fill="none" stroke="#FFF200" stroke-width="0.4248" stroke-miterlimit="10" x1="11.057" y1="17.67" x2="12.226" y2="17.67"/>
			
				<line fill="none" stroke="#FFF200" stroke-width="0.4248" stroke-miterlimit="10" x1="9.146" y1="19.581" x2="10.314" y2="19.581"/>
			
				<line fill="none" stroke="#FFF200" stroke-width="0.4248" stroke-miterlimit="10" x1="11.057" y1="19.581" x2="12.226" y2="19.581"/>
			
				<line fill="none" stroke="#FFF200" stroke-width="0.4248" stroke-miterlimit="10" x1="9.146" y1="21.495" x2="10.314" y2="21.495"/>
			
				<line fill="none" stroke="#FFF200" stroke-width="0.4248" stroke-miterlimit="10" x1="11.057" y1="21.495" x2="12.226" y2="21.495"/>
		</g>
		<g>
			
				<line fill="none" stroke="#FFF200" stroke-width="0.4248" stroke-miterlimit="10" x1="14.08" y1="10.024" x2="15.249" y2="10.024"/>
			
				<line fill="none" stroke="#FFF200" stroke-width="0.4248" stroke-miterlimit="10" x1="15.992" y1="10.024" x2="17.16" y2="10.024"/>
			
				<line fill="none" stroke="#FFF200" stroke-width="0.4248" stroke-miterlimit="10" x1="14.08" y1="11.935" x2="15.249" y2="11.935"/>
			
				<line fill="none" stroke="#FFF200" stroke-width="0.4248" stroke-miterlimit="10" x1="15.992" y1="11.935" x2="17.16" y2="11.935"/>
			
				<line fill="none" stroke="#FFF200" stroke-width="0.4248" stroke-miterlimit="10" x1="14.08" y1="13.846" x2="15.249" y2="13.846"/>
			
				<line fill="none" stroke="#FFF200" stroke-width="0.4248" stroke-miterlimit="10" x1="15.992" y1="13.846" x2="17.16" y2="13.846"/>
			
				<line fill="none" stroke="#FFF200" stroke-width="0.4248" stroke-miterlimit="10" x1="14.08" y1="15.758" x2="15.249" y2="15.758"/>
			
				<line fill="none" stroke="#FFF200" stroke-width="0.4248" stroke-miterlimit="10" x1="15.992" y1="15.758" x2="17.16" y2="15.758"/>
			
				<line fill="none" stroke="#FFF200" stroke-width="0.4248" stroke-miterlimit="10" x1="14.08" y1="17.67" x2="15.249" y2="17.67"/>
			
				<line fill="none" stroke="#FFF200" stroke-width="0.4248" stroke-miterlimit="10" x1="15.992" y1="17.67" x2="17.16" y2="17.67"/>
		</g>
		<g>
			
				<line fill="none" stroke="#FFF200" stroke-width="0.4248" stroke-miterlimit="10" x1="18.971" y1="15.753" x2="20.139" y2="15.753"/>
			
				<line fill="none" stroke="#FFF200" stroke-width="0.4248" stroke-miterlimit="10" x1="20.881" y1="15.753" x2="22.051" y2="15.753"/>
			
				<line fill="none" stroke="#FFF200" stroke-width="0.4248" stroke-miterlimit="10" x1="18.971" y1="17.667" x2="20.139" y2="17.667"/>
			
				<line fill="none" stroke="#FFF200" stroke-width="0.4248" stroke-miterlimit="10" x1="20.881" y1="17.667" x2="22.051" y2="17.667"/>
			
				<line fill="none" stroke="#FFF200" stroke-width="0.4248" stroke-miterlimit="10" x1="18.971" y1="19.579" x2="20.139" y2="19.579"/>
			
				<line fill="none" stroke="#FFF200" stroke-width="0.4248" stroke-miterlimit="10" x1="20.881" y1="19.579" x2="22.051" y2="19.579"/>
			
				<line fill="none" stroke="#FFF200" stroke-width="0.4248" stroke-miterlimit="10" x1="18.971" y1="21.491" x2="20.139" y2="21.491"/>
			
				<line fill="none" stroke="#FFF200" stroke-width="0.4248" stroke-miterlimit="10" x1="20.881" y1="21.491" x2="22.051" y2="21.491"/>
			
				<line fill="none" stroke="#FFF200" stroke-width="0.4248" stroke-miterlimit="10" x1="18.971" y1="23.401" x2="20.139" y2="23.401"/>
			
				<line fill="none" stroke="#FFF200" stroke-width="0.4248" stroke-miterlimit="10" x1="20.881" y1="23.401" x2="22.051" y2="23.401"/>
		</g>
		
			<line fill="none" stroke="#FFF200" stroke-width="0.4248" stroke-miterlimit="10" x1="14.084" y1="19.581" x2="15.253" y2="19.581"/>
		
			<line fill="none" stroke="#FFF200" stroke-width="0.4248" stroke-miterlimit="10" x1="15.996" y1="19.581" x2="17.164" y2="19.581"/>
		
			<line fill="none" stroke="#FFF200" stroke-width="0.4248" stroke-miterlimit="10" x1="14.084" y1="21.495" x2="15.253" y2="21.495"/>
		
			<line fill="none" stroke="#FFF200" stroke-width="0.4248" stroke-miterlimit="10" x1="15.996" y1="21.495" x2="17.164" y2="21.495"/>
		
			<line fill="none" stroke="#FFF200" stroke-width="0.4248" stroke-miterlimit="10" x1="14.084" y1="23.407" x2="15.253" y2="23.407"/>
		
			<line fill="none" stroke="#FFF200" stroke-width="0.4248" stroke-miterlimit="10" x1="15.996" y1="23.407" x2="17.164" y2="23.407"/>
		<g>
			
				<line fill="none" stroke="#FFF200" stroke-width="0.4248" stroke-miterlimit="10" x1="9.146" y1="23.401" x2="10.314" y2="23.401"/>
			
				<line fill="none" stroke="#FFF200" stroke-width="0.4248" stroke-miterlimit="10" x1="11.058" y1="23.401" x2="12.226" y2="23.401"/>
		</g>
	</g>
</g>
</svg>
