<?xml version="1.0" encoding="utf-8"?>
<!-- Generator: Adobe Illustrator 16.0.0, SVG Export Plug-In . SVG Version: 6.00 Build 0)  -->
<!DOCTYPE svg PUBLIC "-//W3C//DTD SVG 1.1//EN" "http://www.w3.org/Graphics/SVG/1.1/DTD/svg11.dtd">
<svg version="1.1" id="Layer_1" xmlns="http://www.w3.org/2000/svg" xmlns:xlink="http://www.w3.org/1999/xlink" x="0px" y="0px"
	 width="30px" height="30px" viewBox="0 0 30 30" enable-background="new 0 0 30 30" xml:space="preserve">
<g>
	<path fill="none" stroke="#FFF200" stroke-width="0.8497" stroke-miterlimit="10" d="M16.017,5.154"/>
	<circle fill="none" stroke="#FFF200" stroke-width="1.0373" stroke-miterlimit="10" cx="14.852" cy="15.123" r="15"/>
	<g>
		<g>
			<polygon fill="none" stroke="#FFF200" stroke-width="0.6373" stroke-miterlimit="10" points="12.408,10.786 9.894,9.299 
				7.522,10.786 7.522,24.735 12.408,24.735 			"/>
			<polygon fill="none" stroke="#FFF200" stroke-width="0.6373" stroke-miterlimit="10" points="17.293,6.998 14.851,5.511 
				12.408,6.998 12.408,24.735 17.293,24.735 			"/>
			<polygon fill="none" stroke="#FFF200" stroke-width="0.6373" stroke-miterlimit="10" points="22.18,13.37 19.734,11.883 
				17.293,13.37 17.293,24.735 22.18,24.735 			"/>
		</g>
		<g>
			
				<line fill="none" stroke="#FFF200" stroke-width="0.4248" stroke-miterlimit="10" x1="8.372" y1="13.427" x2="9.541" y2="13.427"/>
			
				<line fill="none" stroke="#FFF200" stroke-width="0.4248" stroke-miterlimit="10" x1="10.283" y1="13.427" x2="11.452" y2="13.427"/>
			
				<line fill="none" stroke="#FFF200" stroke-width="0.4248" stroke-miterlimit="10" x1="8.372" y1="15.339" x2="9.541" y2="15.339"/>
			
				<line fill="none" stroke="#FFF200" stroke-width="0.4248" stroke-miterlimit="10" x1="10.283" y1="15.339" x2="11.452" y2="15.339"/>
			
				<line fill="none" stroke="#FFF200" stroke-width="0.4248" stroke-miterlimit="10" x1="8.372" y1="17.251" x2="9.541" y2="17.251"/>
			
				<line fill="none" stroke="#FFF200" stroke-width="0.4248" stroke-miterlimit="10" x1="10.283" y1="17.251" x2="11.452" y2="17.251"/>
			
				<line fill="none" stroke="#FFF200" stroke-width="0.4248" stroke-miterlimit="10" x1="8.372" y1="19.162" x2="9.541" y2="19.162"/>
			
				<line fill="none" stroke="#FFF200" stroke-width="0.4248" stroke-miterlimit="10" x1="10.283" y1="19.162" x2="11.452" y2="19.162"/>
			
				<line fill="none" stroke="#FFF200" stroke-width="0.4248" stroke-miterlimit="10" x1="8.372" y1="21.074" x2="9.541" y2="21.074"/>
			
				<line fill="none" stroke="#FFF200" stroke-width="0.4248" stroke-miterlimit="10" x1="10.283" y1="21.074" x2="11.452" y2="21.074"/>
		</g>
		<g>
			
				<line fill="none" stroke="#FFF200" stroke-width="0.4248" stroke-miterlimit="10" x1="13.307" y1="9.604" x2="14.476" y2="9.604"/>
			
				<line fill="none" stroke="#FFF200" stroke-width="0.4248" stroke-miterlimit="10" x1="15.219" y1="9.604" x2="16.387" y2="9.604"/>
			
				<line fill="none" stroke="#FFF200" stroke-width="0.4248" stroke-miterlimit="10" x1="13.307" y1="11.516" x2="14.476" y2="11.516"/>
			
				<line fill="none" stroke="#FFF200" stroke-width="0.4248" stroke-miterlimit="10" x1="15.219" y1="11.516" x2="16.387" y2="11.516"/>
			
				<line fill="none" stroke="#FFF200" stroke-width="0.4248" stroke-miterlimit="10" x1="13.307" y1="13.427" x2="14.476" y2="13.427"/>
			
				<line fill="none" stroke="#FFF200" stroke-width="0.4248" stroke-miterlimit="10" x1="15.219" y1="13.427" x2="16.387" y2="13.427"/>
			
				<line fill="none" stroke="#FFF200" stroke-width="0.4248" stroke-miterlimit="10" x1="13.307" y1="15.339" x2="14.476" y2="15.339"/>
			
				<line fill="none" stroke="#FFF200" stroke-width="0.4248" stroke-miterlimit="10" x1="15.219" y1="15.339" x2="16.387" y2="15.339"/>
			
				<line fill="none" stroke="#FFF200" stroke-width="0.4248" stroke-miterlimit="10" x1="13.307" y1="17.251" x2="14.476" y2="17.251"/>
			
				<line fill="none" stroke="#FFF200" stroke-width="0.4248" stroke-miterlimit="10" x1="15.219" y1="17.251" x2="16.387" y2="17.251"/>
		</g>
		<g>
			
				<line fill="none" stroke="#FFF200" stroke-width="0.4248" stroke-miterlimit="10" x1="18.196" y1="15.335" x2="19.365" y2="15.335"/>
			
				<line fill="none" stroke="#FFF200" stroke-width="0.4248" stroke-miterlimit="10" x1="20.106" y1="15.335" x2="21.277" y2="15.335"/>
			
				<line fill="none" stroke="#FFF200" stroke-width="0.4248" stroke-miterlimit="10" x1="18.196" y1="17.246" x2="19.365" y2="17.246"/>
			
				<line fill="none" stroke="#FFF200" stroke-width="0.4248" stroke-miterlimit="10" x1="20.106" y1="17.246" x2="21.277" y2="17.246"/>
			
				<line fill="none" stroke="#FFF200" stroke-width="0.4248" stroke-miterlimit="10" x1="18.196" y1="19.159" x2="19.365" y2="19.159"/>
			
				<line fill="none" stroke="#FFF200" stroke-width="0.4248" stroke-miterlimit="10" x1="20.106" y1="19.159" x2="21.277" y2="19.159"/>
			
				<line fill="none" stroke="#FFF200" stroke-width="0.4248" stroke-miterlimit="10" x1="18.196" y1="21.07" x2="19.365" y2="21.07"/>
			
				<line fill="none" stroke="#FFF200" stroke-width="0.4248" stroke-miterlimit="10" x1="20.106" y1="21.07" x2="21.277" y2="21.07"/>
			
				<line fill="none" stroke="#FFF200" stroke-width="0.4248" stroke-miterlimit="10" x1="18.196" y1="22.982" x2="19.365" y2="22.982"/>
			
				<line fill="none" stroke="#FFF200" stroke-width="0.4248" stroke-miterlimit="10" x1="20.106" y1="22.982" x2="21.277" y2="22.982"/>
		</g>
		
			<line fill="none" stroke="#FFF200" stroke-width="0.4248" stroke-miterlimit="10" x1="13.31" y1="19.162" x2="14.479" y2="19.162"/>
		
			<line fill="none" stroke="#FFF200" stroke-width="0.4248" stroke-miterlimit="10" x1="15.222" y1="19.162" x2="16.39" y2="19.162"/>
		
			<line fill="none" stroke="#FFF200" stroke-width="0.4248" stroke-miterlimit="10" x1="13.31" y1="21.074" x2="14.479" y2="21.074"/>
		
			<line fill="none" stroke="#FFF200" stroke-width="0.4248" stroke-miterlimit="10" x1="15.222" y1="21.074" x2="16.39" y2="21.074"/>
		
			<line fill="none" stroke="#FFF200" stroke-width="0.4248" stroke-miterlimit="10" x1="13.31" y1="22.986" x2="14.479" y2="22.986"/>
		
			<line fill="none" stroke="#FFF200" stroke-width="0.4248" stroke-miterlimit="10" x1="15.222" y1="22.986" x2="16.39" y2="22.986"/>
		<g>
			
				<line fill="none" stroke="#FFF200" stroke-width="0.4248" stroke-miterlimit="10" x1="8.372" y1="22.982" x2="9.541" y2="22.982"/>
			
				<line fill="none" stroke="#FFF200" stroke-width="0.4248" stroke-miterlimit="10" x1="10.283" y1="22.982" x2="11.452" y2="22.982"/>
		</g>
	</g>
</g>
</svg>
