<?xml version="1.0" encoding="utf-8"?>
<!-- Generator: Adobe Illustrator 16.0.0, SVG Export Plug-In . SVG Version: 6.00 Build 0)  -->
<!DOCTYPE svg PUBLIC "-//W3C//DTD SVG 1.1//EN" "http://www.w3.org/Graphics/SVG/1.1/DTD/svg11.dtd">
<svg version="1.1" id="Layer_1" xmlns="http://www.w3.org/2000/svg" xmlns:xlink="http://www.w3.org/1999/xlink" x="0px" y="0px"
	 width="31.25px" height="31.083px" viewBox="0 0 31.25 31.083" enable-background="new 0 0 31.25 31.083" xml:space="preserve">
<g>
	<path fill="#FFFFFF" stroke="#FFF200" stroke-width="0.8904" stroke-miterlimit="10" d="M22.557,11.082"/>
	<path fill="#FFFFFF" stroke="#FFF200" stroke-width="0.8439" stroke-miterlimit="10" d="M17.623,6.274"/>
	<polyline fill="none" stroke="#FFF200" stroke-width="0.3824" stroke-miterlimit="10" points="16.57,12.273 14.712,12.273 
		16.052,9.916 15.469,9.916 16.505,7.938 15.938,7.932 16.98,5.327 18.104,7.896 17.539,7.907 18.988,9.918 18.449,9.923 
		19.787,12.273 17.672,12.273 17.65,14.715 	"/>
	<path fill="none" stroke="#FFF200" stroke-width="0.5706" stroke-miterlimit="10" d="M10.522,20.682v-4.214
		c0,0,2.385,0.06,3.1-1.852c0.978-2.615-2.016-3.676-2.016-3.676s0.696-2.931-2.03-2.931c-1.876,0-2.1,2.243-2.1,2.243
		s-2.615,0.829-2.587,3.185c0.027,2.308,2.201,3.125,3.629,3.126"/>
	<line fill="none" stroke="#FFF200" stroke-width="0.6329" stroke-miterlimit="10" x1="4.208" y1="25.814" x2="27.736" y2="6.274"/>
	<line fill="none" stroke="#FFF200" stroke-width="0.6329" stroke-miterlimit="10" x1="13.008" y1="30.563" x2="29.15" y2="8.156"/>
	<g>
		<g>
			
				<line fill="none" stroke="#FFF200" stroke-width="0.4219" stroke-miterlimit="10" x1="8.459" y1="28.681" x2="9.319" y2="27.752"/>
			
				<line fill="none" stroke="#FFF200" stroke-width="0.4219" stroke-miterlimit="10" stroke-dasharray="2.3975,2.3975" x1="10.948" y1="25.993" x2="26.42" y2="9.278"/>
			
				<line fill="none" stroke="#FFF200" stroke-width="0.4219" stroke-miterlimit="10" x1="27.234" y1="8.398" x2="28.094" y2="7.469"/>
		</g>
	</g>
	<circle fill="none" stroke="#FFF200" stroke-width="1.0374" stroke-miterlimit="10" cx="15.621" cy="15.583" r="15"/>
</g>
</svg>
