<?xml version="1.0" encoding="utf-8"?>
<!-- Generator: Adobe Illustrator 16.0.0, SVG Export Plug-In . SVG Version: 6.00 Build 0)  -->
<!DOCTYPE svg PUBLIC "-//W3C//DTD SVG 1.1//EN" "http://www.w3.org/Graphics/SVG/1.1/DTD/svg11.dtd">
<svg version="1.1" id="Layer_1" xmlns="http://www.w3.org/2000/svg" xmlns:xlink="http://www.w3.org/1999/xlink" x="0px" y="0px"
	 width="30px" height="30px" viewBox="0 0 30 30" enable-background="new 0 0 30 30" xml:space="preserve">
<g>
	<path fill="#FFFFFF" stroke="#FFF200" stroke-width="0.8904" stroke-miterlimit="10" d="M21.807,10.498"/>
	<path fill="#FFFFFF" stroke="#FFF200" stroke-width="0.8439" stroke-miterlimit="10" d="M16.873,5.691"/>
	<polyline fill="none" stroke="#FFF200" stroke-width="0.3824" stroke-miterlimit="10" points="15.82,11.69 13.962,11.69 
		15.302,9.333 14.719,9.333 15.755,7.355 15.188,7.348 16.23,4.743 17.354,7.313 16.789,7.323 18.238,9.334 17.699,9.34 
		19.037,11.69 16.922,11.69 16.9,14.132 	"/>
	<path fill="none" stroke="#FFF200" stroke-width="0.5706" stroke-miterlimit="10" d="M9.772,20.099v-4.214
		c0,0,2.385,0.06,3.1-1.852c0.978-2.615-2.016-3.676-2.016-3.676s0.696-2.931-2.03-2.931c-1.876,0-2.1,2.243-2.1,2.243
		s-2.615,0.829-2.587,3.185c0.027,2.308,2.201,3.125,3.629,3.126"/>
	<line fill="none" stroke="#FFF200" stroke-width="0.6329" stroke-miterlimit="10" x1="3.458" y1="25.23" x2="26.986" y2="5.691"/>
	<line fill="none" stroke="#FFF200" stroke-width="0.6329" stroke-miterlimit="10" x1="12.258" y1="29.979" x2="28.4" y2="7.573"/>
	<g>
		<g>
			
				<line fill="none" stroke="#FFF200" stroke-width="0.4219" stroke-miterlimit="10" x1="7.709" y1="28.098" x2="8.569" y2="27.169"/>
			
				<line fill="none" stroke="#FFF200" stroke-width="0.4219" stroke-miterlimit="10" stroke-dasharray="2.3975,2.3975" x1="10.198" y1="25.409" x2="25.67" y2="8.694"/>
			
				<line fill="none" stroke="#FFF200" stroke-width="0.4219" stroke-miterlimit="10" x1="26.484" y1="7.814" x2="27.344" y2="6.886"/>
		</g>
	</g>
	<circle fill="none" stroke="#FFF200" stroke-width="1.0374" stroke-miterlimit="10" cx="14.871" cy="15" r="15"/>
</g>
</svg>
