<?xml version="1.0" encoding="utf-8"?>
<!-- Generator: Adobe Illustrator 16.0.0, SVG Export Plug-In . SVG Version: 6.00 Build 0)  -->
<!DOCTYPE svg PUBLIC "-//W3C//DTD SVG 1.1//EN" "http://www.w3.org/Graphics/SVG/1.1/DTD/svg11.dtd">
<svg version="1.1" id="Layer_1" xmlns="http://www.w3.org/2000/svg" xmlns:xlink="http://www.w3.org/1999/xlink" x="0px" y="0px"
	 width="66px" height="66px" viewBox="0 0 66 66" enable-background="new 0 0 66 66" xml:space="preserve">
<g>
	<path fill="#FFFFFF" d="M-27.609,54.432c0,0.135,0.037,0.262,0.101,0.371c0.245-0.249,0.556-0.435,0.904-0.528
		c0.146-0.516,0.62-0.893,1.182-0.893c0.048,0,0.095,0.002,0.141,0.008c-0.468,0.135-0.846,0.483-1.021,0.934
		c-0.291,0.097-0.501,0.371-0.501,0.694c0,0.151,0.046,0.291,0.124,0.407c0.253-0.283,0.585-0.493,0.962-0.596
		c0.108-0.542,0.559-0.96,1.117-1.019c-0.487,0.204-0.829,0.686-0.829,1.247c0,0.198,0.043,0.387,0.12,0.557
		c0.086-0.309,0.369-0.536,0.705-0.536c0.085,0,0.166,0.015,0.241,0.041c0.104,0.038,0.217,0.059,0.334,0.059
		c0.541,0,0.979-0.439,0.979-0.981c0-0.107-0.017-0.212-0.049-0.31c0.257,0.075,0.446,0.313,0.446,0.595
		c0,0.129-0.04,0.248-0.107,0.347c0.072,0.014,0.146,0.021,0.222,0.021c0.637,0,1.163-0.479,1.236-1.097
		c0.32-0.174,0.601-0.407,0.843-0.699l0.17,0.829c0.012,0.057,0.009,0.114-0.007,0.167c-0.015,0.053-0.043,0.103-0.084,0.145
		l0.703-0.722c0.041-0.042,0.069-0.092,0.083-0.146c0.016-0.053,0.019-0.109,0.007-0.168l-0.207-1.011
		c-0.012-0.057-0.009-0.115,0.007-0.167c0.015-0.053,0.043-0.103,0.084-0.145l0.553-0.564c-0.041,0.042-0.069,0.092-0.084,0.145
		c-0.015,0.054-0.018,0.11-0.006,0.167l0.207,1.014c0.012,0.058,0.009,0.115-0.006,0.168c-0.015,0.052-0.042,0.101-0.082,0.143
		l0.627-0.651c0.04-0.042,0.068-0.093,0.083-0.146c0.016-0.052,0.019-0.109,0.007-0.167l-0.207-1.01
		c-0.012-0.057-0.009-0.115,0.007-0.167c0.015-0.053,0.043-0.104,0.084-0.146l0.553-0.563c-0.041,0.042-0.069,0.092-0.084,0.145
		c-0.015,0.053-0.018,0.11-0.006,0.167l0.208,1.014c0.012,0.057,0.008,0.114-0.007,0.167c-0.015,0.052-0.042,0.101-0.082,0.143
		l0.627-0.651c0.041-0.042,0.068-0.093,0.083-0.145c0.016-0.053,0.019-0.11,0.007-0.168l-0.101-0.494
		c-0.106-0.559,0.471-1.202,0.929-1.267c0.055-0.106,0.085-0.222,0.085-0.34c0-0.567-0.675-1.027-1.509-1.027
		c-0.407,0-0.777,0.11-1.049,0.289c0.109,0.323,0.132,0.65-0.937,0.803c-0.848,0.12-1.594,0.285-2.161,0.766
		c-0.874,0.741-0.803,1.732-1.3,2.107c0.221,0.054,0.502,0.054,0.803-0.011c0.19-0.041,0.366-0.104,0.521-0.183
		c-0.093,0.18-0.306,0.349-0.586,0.469c-0.092,0.35-0.403,0.684-0.823,0.84c-0.265,0.098-0.528,0.107-0.746,0.045l-1.023-0.296
		c-0.126-0.036-0.257-0.056-0.394-0.056c-0.754,0-1.376,0.581-1.468,1.332C-27.336,53.757-27.609,54.063-27.609,54.432
		 M-17.495,13.974c0.589-0.576,1.27-1.057,2.019-1.42c-0.022-0.087-0.034-0.177-0.034-0.269v-0.006
		c-3.126,0.514-5.939,2.118-8.479,2.105c-0.712-0.003-1.27-0.276-1.36-0.727c-0.018-0.089-0.016-0.181,0.003-0.272
		c0.038-0.176,0.194-0.309,0.382-0.309c0.216,0,0.39,0.175,0.39,0.391c0,0.103-0.04,0.197-0.105,0.267
		c0.073,0.007,0.148,0.011,0.226,0.011c0.201,0,0.392-0.025,0.56-0.07c0.275-0.074,0.477-0.325,0.477-0.623
		c0-0.356-0.289-0.644-0.645-0.644c-0.019,0-0.039,0.001-0.058,0.002c0.09-0.038,0.189-0.059,0.293-0.059
		c0.413,0,0.749,0.335,0.749,0.749c0,0.022-0.001,0.043-0.003,0.064c1.116-0.025,2.374-1.043,2.649-1.431
		c-0.35,0.08-0.729,0.124-1.125,0.124c-0.449,0-0.878-0.055-1.266-0.158c-0.549-0.145-1.089-0.226-1.504-0.226
		c-1.369,0-2.479,0.893-2.479,1.995c0,0.91,0.752,1.705,1.794,1.918C-22.64,15.871-19.851,14.461-17.495,13.974 M-30.862,17.217
		c0.062-0.334,0.088-0.658,0.076-0.97l-0.299,0.35c-0.059-0.139-0.098-0.225-0.138-0.294c-0.033-0.057-0.061-0.096-0.1-0.103
		c-0.02,0.011-0.05,0.027-0.083,0.034c-0.038,0.009-0.09,0.006-0.122,0.006c-0.031,0-0.083,0.003-0.122-0.006
		c-0.032-0.007-0.062-0.023-0.082-0.034c-0.04,0.007-0.067,0.046-0.1,0.103c-0.04,0.069-0.079,0.155-0.138,0.294l-0.3-0.35
		c-0.011,0.312,0.014,0.636,0.077,0.97c0.221-0.048,0.449-0.066,0.665-0.066C-31.312,17.151-31.084,17.169-30.862,17.217
		 M-30.729,18.117c0.034-0.379-0.397-0.514-0.799-0.514c-0.402,0-0.832,0.135-0.799,0.514c0.041,0.462,0.473,0.242,0.799,0.244
		C-31.202,18.358-30.77,18.579-30.729,18.117 M-29.581,15.388c-0.079,0.021-0.122,0.067-0.131,0.15
		c-0.047,0.446-0.228,0.626-0.517,0.727c-0.004,0.45-0.066,0.79-0.188,1.212c0.343,0.717,0.08,1.218-0.198,1.326
		c-0.265,0.102-0.607-0.036-0.91-0.036c-0.303,0-0.65,0.138-0.915,0.036c-0.279-0.108-0.541-0.609-0.199-1.326
		c-0.121-0.422-0.184-0.762-0.187-1.212c-0.289-0.101-0.471-0.281-0.518-0.727c-0.009-0.083-0.052-0.129-0.13-0.15
		c-1.14-0.313-1.248-1.729-0.671-2.13c-0.051,0.634-0.106,1.529,1.19,1.648c-0.021,0.744,0.301,0.943,0.632,0.943
		c0.271,0.001,0.426-0.086,0.494-0.122c0.241-0.128,0.075-0.324,0.013-0.382c-0.166-0.155-0.25-0.374-0.21-0.594
		c0.007-0.039,0.022-0.06,0.059-0.06h0.439h0.439c0.037,0,0.053,0.021,0.06,0.06c0.039,0.22-0.045,0.439-0.21,0.594
		c-0.062,0.058-0.228,0.254,0.013,0.382c0.067,0.036,0.223,0.123,0.494,0.122c0.331,0,0.653-0.199,0.632-0.943
		c1.296-0.119,1.241-1.014,1.19-1.648C-28.333,13.659-28.442,15.075-29.581,15.388 M-29.23,12.917c0,0.325-0.238,0.687-0.509,0.687
		h-0.248c0.062,0.075,0.1,0.172,0.1,0.277c0,0.24-0.195,0.435-0.435,0.435c-0.241,0-0.436-0.195-0.436-0.435
		c0-0.105,0.038-0.202,0.1-0.277h-0.26c-0.089,0-0.158,0.037-0.213,0.141c-0.018-0.141-0.036-0.285-0.004-0.381
		c0.044-0.132,0.146-0.21,0.248-0.21h1.142C-29.534,13.153-29.377,13.082-29.23,12.917 M-29.381,12.375h-0.398
		c-0.199,0-0.336-0.081-0.452-0.215l-0.455-0.594c-0.075-0.094-0.134-0.16-0.232-0.203h0.45c0.135,0,0.255,0.058,0.349,0.178
		l0.474,0.603C-29.539,12.272-29.506,12.358-29.381,12.375 M-31.462,11.395l0.582,0.818c0.092,0.134,0.179,0.209,0.304,0.26h-0.533
		c-0.205,0-0.328-0.094-0.418-0.242l-0.458-0.702c-0.175-0.263-0.244-0.328-0.445-0.4h0.495
		C-31.74,11.128-31.558,11.255-31.462,11.395 M-32.781,11.542l0.474,0.603c0.106,0.128,0.139,0.214,0.264,0.231h-0.398
		c-0.199,0-0.336-0.081-0.452-0.215l-0.455-0.594c-0.075-0.094-0.134-0.16-0.232-0.203h0.45
		C-32.995,11.363-32.875,11.421-32.781,11.542 M-33.068,13.604h-0.249c-0.27,0-0.509-0.362-0.509-0.687
		c0.148,0.165,0.304,0.237,0.516,0.237h1.142c0.102,0,0.204,0.078,0.248,0.21c0.032,0.096,0.014,0.24-0.004,0.381
		c-0.055-0.104-0.124-0.141-0.213-0.141h-0.26c0.062,0.075,0.099,0.172,0.099,0.277c0,0.24-0.195,0.435-0.435,0.435
		c-0.24,0-0.435-0.195-0.435-0.435C-33.168,13.775-33.131,13.679-33.068,13.604 M-34.476,19.045l0.138-0.271
		c0.027-0.052,0.038-0.108,0.037-0.163c-0.001-0.054-0.015-0.11-0.043-0.16l0.379,0.682c0.028,0.051,0.042,0.107,0.043,0.161
		c0.002,0.055-0.01,0.112-0.037,0.164l-0.034,0.067c-0.233,0.452-0.45,1.299-0.209,1.79c-0.562-0.209-0.747-0.701-0.687-1.11
		c-1.057-1.002-1.324-2.019-0.569-2.871l0.388-0.453c0.039-0.044,0.064-0.096,0.075-0.149c0.013-0.053,0.013-0.11-0.002-0.166
		l0.202,0.753c0.015,0.057,0.016,0.114,0.003,0.168c-0.012,0.053-0.037,0.105-0.075,0.149l-0.118,0.138
		c-0.395,0.46-0.289,1.083,0.33,1.642C-34.591,19.259-34.549,19.179-34.476,19.045 M-8.54,21.873
		c0.041-0.101,0.064-0.212,0.064-0.328c0-0.473-0.383-0.858-0.856-0.858h-0.866c-0.059,0.001-0.114-0.014-0.163-0.04
		c-0.048-0.025-0.092-0.063-0.125-0.111l-0.434-0.641c0.033,0.049,0.076,0.086,0.125,0.111c0.048,0.026,0.104,0.041,0.163,0.04
		l1.141,0.001c0.059,0,0.115,0.014,0.163,0.04c0.049,0.025,0.092,0.063,0.125,0.111l-0.524-0.767
		c-0.033-0.049-0.077-0.086-0.126-0.111c-0.048-0.026-0.104-0.041-0.162-0.041l-1.132,0.001c-0.058,0-0.114-0.014-0.162-0.04
		c-0.049-0.026-0.093-0.063-0.126-0.111l-0.492-0.725c0.033,0.049,0.077,0.086,0.125,0.111c0.049,0.026,0.104,0.041,0.163,0.041
		l1.136-0.001c0.059,0,0.115,0.014,0.163,0.04c0.049,0.025,0.092,0.063,0.125,0.111l-0.524-0.768
		c-0.033-0.048-0.077-0.085-0.126-0.111c-0.048-0.025-0.104-0.04-0.162-0.04h-0.903c-0.059,0-0.114-0.015-0.163-0.04
		c-0.048-0.026-0.092-0.063-0.125-0.112l-0.607-0.89c1.227-0.147,2.217-0.812,2.414-1.728c0.256-1.188-0.926-2.341-2.636-2.592
		c-0.288-0.042-0.508-0.289-0.508-0.588c0-0.254,0.16-0.472,0.385-0.556c-0.182-0.079-0.386-0.123-0.602-0.123
		c-0.756,0-1.37,0.542-1.37,1.211c0,0.12,0.021,0.237,0.058,0.347c-0.848,0.366-1.62,1.015-2.211,1.716
		c0.632-0.168,1.296-0.258,1.981-0.258c-0.003-0.032-0.005-0.064-0.005-0.097c0-0.512,0.415-0.928,0.928-0.928h0.013
		c-0.35,0.154-0.52,0.49-0.52,0.712c0,0.265,0.215,0.48,0.479,0.48c0.103,0,0.199-0.033,0.277-0.088
		c-0.018-0.06-0.028-0.124-0.028-0.191c0-0.367,0.297-0.664,0.665-0.664c0.032,0,0.065,0.002,0.096,0.007
		c-0.253,0.118-0.429,0.376-0.429,0.674c0,0.411,0.333,0.744,0.744,0.744c0.044,0,0.086-0.003,0.128-0.01
		c-0.012-0.044-0.018-0.089-0.018-0.136c0-0.295,0.239-0.533,0.533-0.533c0.295,0,0.534,0.238,0.534,0.533
		c0,0.641-0.712,0.7-1.231,0.551c-1.478-0.426-2.862-0.617-4.201-0.429c-1.718,0.241-4.532,1.402-7.519,1.305
		c-0.668-0.021-1.397-0.132-2.131-0.333c0.09,0.099,0.148,0.167,0.186,0.225c0.291,0.453,0.391,0.928,0.134,1.522
		c0.007-0.666-0.543-1.214-1.004-1.55c-0.186-0.135-0.261-0.264-0.23-0.437l0.136-0.768c-0.01,0.057-0.005,0.114,0.012,0.166
		c0.017,0.052,0.046,0.101,0.088,0.142l0.287,0.281c0.109-0.777-0.067-1.502-0.53-2.173c0.205-0.536,0.233-1.127,0.096-1.682
		c-0.054,0.42-0.26,0.6-0.455,0.722c-0.364,0.228-0.424,0.611-0.236,0.868c-0.306-0.156-0.73-0.725-0.485-1.058
		c0.264-0.359,0.987-0.19,1.076-0.806c-0.469-0.149-0.952-0.044-1.099-0.004c-0.278-0.319-0.647-0.477-1.106-0.474
		c-0.363-0.329-0.829-0.466-1.399-0.409c-0.569-0.057-1.035,0.08-1.398,0.409c-0.459-0.003-0.828,0.155-1.106,0.474
		c-0.148-0.04-0.63-0.145-1.1,0.004c0.089,0.616,0.812,0.447,1.076,0.806c0.245,0.333-0.178,0.902-0.485,1.058
		c0.189-0.257,0.128-0.64-0.236-0.868c-0.194-0.122-0.401-0.302-0.455-0.722c-0.137,0.555-0.108,1.146,0.096,1.682
		c-0.463,0.671-0.639,1.396-0.53,2.173l0.288-0.281c0.042-0.041,0.071-0.09,0.088-0.142c0.017-0.052,0.021-0.109,0.011-0.166
		l0.136,0.768c0.031,0.173-0.043,0.302-0.229,0.437c-0.462,0.336-1.012,0.884-1.005,1.55c-0.256-0.594-0.152-1.089,0.135-1.522
		c-0.876-0.473-1.543-1.25-1.666-1.392c-0.265-0.308-0.23-0.701,0.01-1.045c0.463-0.662,0.573-1.368-0.008-1.851
		c0.004-0.035,0.006-0.071,0.006-0.107c0-0.439-0.312-0.805-0.727-0.887c0.077,0.119,0.122,0.262,0.122,0.415
		c0,0.175-0.058,0.336-0.157,0.466c0.082,0.107,0.131,0.242,0.131,0.388c0,0.196-0.088,0.371-0.227,0.488
		c0.014-0.067,0.021-0.137,0.021-0.209c0-0.452-0.28-0.83-0.659-0.934c-0.061-0.328-0.349-0.577-0.695-0.577
		c-0.201,0-0.381,0.083-0.51,0.217c0.268,0.021,0.484,0.231,0.513,0.497c-0.128,0.096-0.231,0.229-0.298,0.384h0.017
		c0.463,0,0.838,0.375,0.838,0.838c0,0.052-0.005,0.104-0.014,0.154c-0.035-0.19-0.121-0.366-0.26-0.501
		c-0.26-0.254-0.638-0.307-0.984-0.175c-0.13-0.163-0.33-0.268-0.554-0.268c-0.254,0-0.476,0.133-0.601,0.333
		c0.256,0.011,0.481,0.14,0.622,0.335c-0.364,0.466-0.368,1.11,0.004,1.473c0.252,0.246,0.613,0.303,0.95,0.187
		c0.022-0.007,0.046-0.011,0.071-0.011c0.124,0,0.224,0.1,0.224,0.223s-0.1,0.223-0.224,0.223c-0.054,0-0.104-0.019-0.142-0.051
		c-0.085-0.071-0.195-0.113-0.314-0.113c-0.27,0-0.49,0.219-0.49,0.49c0,0.021,0.001,0.041,0.004,0.061
		c-0.046,0.014-0.095,0.022-0.146,0.022c-0.132,0-0.252-0.054-0.34-0.14c-0.014,0.053-0.021,0.109-0.021,0.167
		c0,0.345,0.266,0.628,0.605,0.654c0.152,0.378,0.523,0.644,0.955,0.644c0.222,0,0.427-0.07,0.595-0.188
		c0.074-0.051,0.162-0.082,0.258-0.082c0.249,0,0.451,0.202,0.451,0.451c0,0.215-0.15,0.394-0.351,0.44l-0.351,0.077
		c-0.057,0.013-0.115,0.01-0.168-0.005c-0.053-0.014-0.103-0.041-0.145-0.081l0.803,0.762c0.043,0.04,0.093,0.068,0.146,0.082
		c0.053,0.015,0.11,0.018,0.168,0.005l0.657-0.146c0.057-0.013,0.115-0.01,0.167,0.005c0.053,0.014,0.104,0.042,0.146,0.082
		l0.551,0.524c-0.043-0.04-0.093-0.068-0.146-0.082c-0.053-0.015-0.11-0.018-0.167-0.005l-0.657,0.145
		c-0.057,0.013-0.115,0.01-0.167-0.005c-0.053-0.014-0.104-0.041-0.146-0.081l0.736,0.698c0.042,0.04,0.093,0.067,0.145,0.082
		c0.053,0.015,0.111,0.017,0.168,0.004l0.658-0.144c0.058-0.012,0.115-0.01,0.168,0.005c0.053,0.014,0.103,0.042,0.146,0.082
		l0.551,0.524c-0.043-0.04-0.093-0.067-0.146-0.082c-0.053-0.015-0.11-0.017-0.168-0.005l-0.656,0.145
		c-0.058,0.013-0.115,0.01-0.168-0.005c-0.053-0.014-0.103-0.041-0.146-0.082l0.736,0.698c0.043,0.041,0.093,0.068,0.146,0.082
		c0.053,0.015,0.11,0.018,0.168,0.005l0.795-0.174c-0.772,0.436-1.594,0.93-2.465,1.481c-0.515,0.325-1.078,0.386-1.725,0.138
		c-0.347-0.133-0.725-0.155-0.963-0.114c-0.31,0.053-0.573,0.241-0.726,0.502c0.12-0.048,0.251-0.075,0.389-0.075
		c0.289,0,0.55,0.117,0.74,0.305c-0.301-0.126-0.675-0.139-1.038-0.006c-0.65,0.236-1.029,0.849-0.881,1.398
		c-0.242,0.093-0.413,0.328-0.413,0.602c0,0.181,0.074,0.345,0.194,0.462c0.064-0.288,0.316-0.505,0.621-0.516
		c0.127,0.084,0.275,0.143,0.434,0.175c0.048-0.083,0.109-0.157,0.179-0.221c-0.007-0.052-0.011-0.105-0.011-0.159
		c0-0.593,0.48-1.074,1.073-1.074c0.049,0,0.098,0.003,0.145,0.01c-0.471,0.113-0.822,0.537-0.822,1.044
		c0,0.064,0.006,0.127,0.017,0.188c-0.254,0.098-0.433,0.343-0.433,0.631c0,0.165,0.059,0.316,0.158,0.434
		c0.182-0.356,0.537-0.608,0.954-0.648c0.157,0.046,0.323,0.071,0.495,0.071c0.107,0,0.212-0.01,0.314-0.028
		c-0.092-0.134-0.146-0.297-0.146-0.472c0-0.461,0.374-0.834,0.835-0.834c0.04,0,0.079,0.002,0.118,0.008
		c-0.441,0.187-0.711,0.57-0.618,0.919c0.066,0.247,0.299,0.418,0.6,0.475c-0.004,0.185-0.055,0.359-0.142,0.51
		c0.387-0.028,0.718-0.261,0.883-0.592c0.456-0.183,0.737-0.574,0.643-0.929c-0.034-0.127-0.112-0.234-0.22-0.315
		c-0.001-0.012-0.002-0.025-0.002-0.037c0-0.244,0.199-0.443,0.443-0.443c0.245,0,0.443,0.199,0.443,0.443
		c0,0.116-0.044,0.221-0.117,0.3h0.927c0.058,0,0.114-0.015,0.162-0.041c0.049-0.025,0.092-0.063,0.125-0.112l0.595-0.882
		c0.022-0.033,0.052-0.058,0.085-0.076c0.033-0.017,0.071-0.028,0.111-0.028h0.728c-0.04,0-0.078,0.011-0.111,0.028
		c-0.033,0.018-0.063,0.043-0.085,0.076l-0.597,0.882c-0.033,0.049-0.076,0.087-0.125,0.112c-0.048,0.026-0.103,0.041-0.162,0.041
		h1.108c0.059,0,0.114-0.015,0.162-0.041c0.049-0.025,0.093-0.063,0.125-0.112l0.668-0.985c-0.461-0.252-0.65-0.693-0.65-1.299
		c0-0.377,0.212-0.807,0.244-1.084l0.013-0.11c0.007-0.058-0.001-0.115-0.021-0.166c-0.016-0.042-0.048-0.102-0.083-0.143
		l0.57,0.584c0.045,0.038,0.077,0.086,0.096,0.137c0.021,0.051,0.029,0.108,0.022,0.166l-0.017,0.134
		c-0.027,0.232-0.319,0.732,0.223,1.19c0.027,0.023,0.094,0.071,0.158,0.111l0.385,0.242V20.96h0.539v1.581
		c0.001,0.059,0.018,0.114,0.045,0.162c0.027,0.047,0.065,0.09,0.115,0.121l0.527,0.335c0.05,0.032,0.105,0.049,0.159,0.053
		c0.055,0.004,0.112-0.004,0.165-0.027l0.971-0.422c-0.054,0.024-0.111,0.032-0.165,0.027c-0.055-0.004-0.11-0.021-0.159-0.052
		l-1.115-0.71c0.542-0.458,0.249-0.958,0.222-1.19l-0.016-0.134c-0.007-0.058,0.001-0.115,0.021-0.166
		c0.02-0.051,0.052-0.099,0.096-0.137l0.57-0.584c-0.035,0.041-0.066,0.101-0.082,0.143c-0.02,0.051-0.028,0.108-0.021,0.166
		l0.012,0.11c0.046,0.395,0.446,1.111,0.113,1.51l1.019,0.647c0.05,0.031,0.105,0.049,0.159,0.053
		c0.055,0.004,0.112-0.004,0.166-0.028l1.015-0.441c-0.054,0.023-0.11,0.031-0.164,0.027c-0.055-0.004-0.11-0.021-0.16-0.053
		l-1.102-0.701c0.24-0.491,0.038-1.273-0.195-1.725l-0.035-0.067c-0.026-0.052-0.038-0.109-0.036-0.164
		c0-0.054,0.014-0.11,0.043-0.161l0.378-0.682c-0.028,0.05-0.042,0.106-0.042,0.16c-0.002,0.055,0.01,0.111,0.036,0.163l0.139,0.271
		c0.073,0.133,0.114,0.214,0.178,0.371c0.62-0.559,0.758-1.098,0.363-1.557l-0.118-0.139c-0.038-0.044-0.063-0.096-0.075-0.149
		c-0.013-0.054-0.013-0.111,0.003-0.168l0.202-0.753c-0.015,0.056-0.015,0.113-0.003,0.166c0.012,0.053,0.037,0.105,0.076,0.15
		l0.388,0.452c0.754,0.852,0.298,1.95-0.602,2.787c0.05,0.161,0.093,0.462,0.057,0.625l1.195,0.758
		c0.05,0.032,0.105,0.049,0.16,0.053c0.054,0.005,0.111-0.004,0.165-0.027l0.864-0.376c-0.049,0.021-0.104,0.033-0.16,0.033
		c-0.223,0-0.403-0.18-0.403-0.402c0-0.18,0.117-0.335,0.281-0.384c3.299-1.003,6.336-3.594,8.33-3.587
		c0.969,0.003,1.755,0.589,1.755,1.316c0,0.117-0.021,0.231-0.059,0.34c-0.425,1.194,0.194,2.334,1.829,2.774
		c0.26,0.07,0.452,0.308,0.452,0.59c0,0.055-0.008,0.109-0.021,0.159c0.037,0.004,0.075,0.005,0.114,0.005
		c0.45,0,0.848-0.223,1.089-0.566c0.281-0.002,0.587-0.019,0.901-0.052c0.038,0.076,0.068,0.163,0.086,0.257
		c0.067,0.344-0.052,0.654-0.263,0.722c-0.375,0.122-0.835-0.024-1.19-0.02c-0.672,0.006-1.215,0.552-1.215,1.226
		c0,0.052,0.003,0.104,0.01,0.156c-0.211,0.131-0.351,0.365-0.351,0.631c0,0.133,0.035,0.258,0.096,0.366
		c0.207-0.241,0.476-0.428,0.783-0.536c0.026-0.59,0.512-1.06,1.108-1.06c0.091,0,0.181,0.011,0.265,0.032
		c-0.604,0.076-1.072,0.592-1.072,1.217c0,0.045,0.003,0.09,0.008,0.135c-0.075,0.091-0.12,0.207-0.12,0.334
		c0,0.16,0.072,0.304,0.185,0.401c0.114-0.25,0.389-0.484,0.745-0.605c0.239-0.08,0.474-0.096,0.67-0.056
		c-0.031-0.094-0.047-0.194-0.047-0.297c0-0.534,0.432-0.966,0.965-0.966c0.049,0,0.098,0.004,0.145,0.011
		c-0.372,0.05-0.658,0.369-0.658,0.754c0,0.256,0.126,0.482,0.319,0.621c0,0.013-0.001,0.027-0.001,0.041
		c0,0.21,0.096,0.396,0.247,0.519c0.067-0.35,0.374-0.614,0.744-0.614c0.316,0,0.577-0.04,0.772-0.104
		c0.33-0.108,0.571-0.413,0.571-0.778c0-0.253-0.115-0.479-0.296-0.628c0.089-0.41,0.073-1.083-0.066-1.643
		c0.028-0.004,0.057-0.006,0.087-0.006C-8.861,21.575-8.658,21.693-8.54,21.873 M-25.349,28.821
		c-0.018-0.089-0.016-0.181,0.003-0.272c0.038-0.176,0.194-0.309,0.382-0.309c0.216,0,0.39,0.175,0.39,0.391
		c0,0.103-0.04,0.197-0.105,0.267c0.073,0.007,0.148,0.011,0.226,0.011c0.201,0,0.392-0.025,0.56-0.07
		c0.275-0.074,0.477-0.325,0.477-0.623c0-0.356-0.289-0.644-0.645-0.644c-0.019,0-0.039,0.001-0.058,0.002
		c0.09-0.038,0.189-0.059,0.293-0.059c0.413,0,0.749,0.335,0.749,0.749c0,0.021-0.001,0.043-0.003,0.064
		c1.116-0.025,2.374-1.043,2.649-1.431c-0.35,0.08-0.729,0.124-1.125,0.124c-0.449,0-0.878-0.055-1.266-0.158
		c-0.549-0.145-1.089-0.226-1.504-0.226c-1.369,0-2.479,0.893-2.479,1.995c0,0.91,0.752,1.705,1.794,1.918
		c2.371,0.485,5.16-0.924,7.516-1.412c0.589-0.576,1.27-1.057,2.019-1.42c-0.022-0.087-0.034-0.177-0.034-0.269v-0.006
		c-3.126,0.514-5.939,2.118-8.479,2.105C-24.701,29.545-25.259,29.272-25.349,28.821 M-25.422,23.051
		c0.048,0,0.095,0.003,0.141,0.008c-0.468,0.135-0.846,0.484-1.021,0.934c-0.291,0.096-0.501,0.371-0.501,0.694
		c0,0.151,0.046,0.291,0.124,0.407c0.253-0.282,0.585-0.493,0.962-0.595c0.108-0.542,0.559-0.96,1.117-1.019
		c-0.487,0.204-0.829,0.686-0.829,1.247c0,0.199,0.043,0.387,0.12,0.557c0.086-0.309,0.369-0.536,0.705-0.536
		c0.085,0,0.166,0.014,0.241,0.041c0.104,0.038,0.217,0.059,0.334,0.059c0.541,0,0.979-0.44,0.979-0.982
		c0-0.108-0.017-0.212-0.049-0.309c0.257,0.074,0.446,0.312,0.446,0.594c0,0.129-0.04,0.248-0.107,0.348
		c0.072,0.013,0.146,0.019,0.222,0.019c0.637,0,1.163-0.479,1.236-1.097c0.32-0.173,0.601-0.407,0.843-0.699l0.17,0.829
		c0.012,0.058,0.009,0.115-0.007,0.168c-0.015,0.052-0.043,0.102-0.084,0.145l0.703-0.723c0.041-0.042,0.069-0.092,0.083-0.145
		c0.016-0.053,0.019-0.11,0.007-0.167l-0.207-1.012c-0.012-0.057-0.009-0.115,0.007-0.167c0.015-0.053,0.043-0.103,0.084-0.145
		l0.553-0.564c-0.041,0.043-0.069,0.093-0.084,0.145c-0.015,0.053-0.018,0.11-0.006,0.168l0.207,1.013
		c0.012,0.057,0.009,0.114-0.006,0.167c-0.015,0.052-0.042,0.101-0.082,0.143l0.627-0.652c0.04-0.042,0.068-0.092,0.083-0.145
		c0.016-0.052,0.019-0.11,0.007-0.167l-0.207-1.01c-0.012-0.057-0.009-0.115,0.007-0.167c0.015-0.053,0.043-0.103,0.084-0.145
		l0.553-0.564c-0.041,0.042-0.069,0.092-0.084,0.145c-0.015,0.053-0.018,0.11-0.006,0.167l0.208,1.013
		c0.012,0.057,0.008,0.115-0.007,0.167c-0.015,0.052-0.042,0.101-0.082,0.143l0.627-0.651c0.041-0.042,0.068-0.092,0.083-0.145
		c0.016-0.053,0.019-0.11,0.007-0.168l-0.101-0.494c-0.106-0.559,0.471-1.202,0.929-1.267c0.055-0.106,0.085-0.221,0.085-0.34
		c0-0.567-0.675-1.027-1.509-1.027c-0.407,0-0.777,0.11-1.049,0.289c0.109,0.323,0.132,0.651-0.937,0.803
		c-0.848,0.121-1.594,0.285-2.161,0.766c-0.874,0.741-0.803,1.732-1.3,2.107c0.221,0.054,0.502,0.054,0.803-0.011
		c0.19-0.041,0.366-0.104,0.521-0.181c-0.093,0.178-0.306,0.347-0.586,0.467c-0.092,0.35-0.403,0.684-0.823,0.84
		c-0.265,0.098-0.528,0.108-0.746,0.045l-1.023-0.296c-0.126-0.036-0.257-0.055-0.394-0.055c-0.754,0-1.376,0.581-1.468,1.332
		c-0.356,0.05-0.629,0.356-0.629,0.725c0,0.136,0.037,0.263,0.101,0.371c0.245-0.249,0.556-0.434,0.904-0.528
		C-26.458,23.43-25.984,23.051-25.422,23.051 M-30.862,32.382c0.062-0.334,0.088-0.658,0.076-0.97l-0.299,0.35
		c-0.059-0.139-0.098-0.225-0.138-0.294c-0.033-0.057-0.061-0.096-0.1-0.103c-0.02,0.011-0.05,0.027-0.083,0.034
		c-0.038,0.009-0.09,0.006-0.122,0.006c-0.031,0-0.083,0.003-0.122-0.006c-0.032-0.007-0.062-0.023-0.082-0.034
		c-0.04,0.007-0.067,0.046-0.1,0.103c-0.04,0.069-0.079,0.155-0.138,0.294l-0.3-0.35c-0.011,0.312,0.014,0.636,0.077,0.97
		c0.221-0.048,0.449-0.066,0.665-0.066C-31.312,32.316-31.084,32.334-30.862,32.382 M-30.729,33.281
		c0.034-0.379-0.397-0.514-0.799-0.514c-0.402,0-0.832,0.135-0.799,0.514c0.041,0.462,0.473,0.242,0.799,0.244
		C-31.202,33.523-30.77,33.743-30.729,33.281 M-29.581,30.553c-0.079,0.021-0.122,0.067-0.131,0.15
		c-0.047,0.446-0.228,0.626-0.517,0.727c-0.004,0.45-0.066,0.79-0.188,1.212c0.343,0.717,0.08,1.218-0.198,1.325
		c-0.265,0.103-0.607-0.035-0.91-0.035c-0.303,0-0.65,0.138-0.915,0.035c-0.279-0.107-0.541-0.608-0.199-1.325
		c-0.121-0.422-0.184-0.762-0.187-1.212c-0.289-0.101-0.471-0.281-0.518-0.727c-0.009-0.083-0.052-0.129-0.13-0.15
		c-1.14-0.313-1.248-1.729-0.671-2.13c-0.051,0.634-0.106,1.529,1.19,1.648c-0.021,0.744,0.301,0.943,0.632,0.943
		c0.271,0.001,0.426-0.086,0.494-0.122c0.241-0.128,0.075-0.324,0.013-0.382c-0.166-0.155-0.25-0.375-0.21-0.594
		c0.007-0.04,0.022-0.06,0.059-0.06h0.439h0.439c0.037,0,0.053,0.02,0.06,0.06c0.039,0.219-0.045,0.439-0.21,0.594
		c-0.062,0.058-0.228,0.254,0.013,0.382c0.067,0.036,0.223,0.123,0.494,0.122c0.331,0,0.653-0.199,0.632-0.943
		c1.296-0.119,1.241-1.014,1.19-1.648C-28.333,28.824-28.442,30.239-29.581,30.553 M-29.23,28.082c0,0.325-0.238,0.687-0.509,0.687
		h-0.248c0.062,0.075,0.1,0.171,0.1,0.277c0,0.24-0.195,0.435-0.435,0.435c-0.241,0-0.436-0.195-0.436-0.435
		c0-0.106,0.038-0.202,0.1-0.277h-0.26c-0.089,0-0.158,0.037-0.213,0.141c-0.018-0.141-0.036-0.285-0.004-0.382
		c0.044-0.131,0.146-0.21,0.248-0.21h1.142C-29.534,28.317-29.377,28.247-29.23,28.082 M-29.381,27.541h-0.398
		c-0.199,0-0.336-0.081-0.452-0.215l-0.455-0.594c-0.075-0.094-0.134-0.16-0.232-0.203h0.45c0.135,0,0.255,0.058,0.349,0.178
		l0.474,0.603C-29.539,27.438-29.506,27.523-29.381,27.541 M-31.462,26.56l0.582,0.818c0.092,0.134,0.179,0.209,0.304,0.26h-0.533
		c-0.205,0-0.328-0.094-0.418-0.242l-0.458-0.702c-0.175-0.263-0.244-0.328-0.445-0.4h0.495
		C-31.74,26.293-31.558,26.42-31.462,26.56 M-32.781,26.707l0.474,0.603c0.106,0.128,0.139,0.214,0.264,0.231h-0.398
		c-0.199,0-0.336-0.081-0.452-0.215l-0.455-0.594c-0.075-0.094-0.134-0.16-0.232-0.203h0.45
		C-32.995,26.528-32.875,26.586-32.781,26.707 M-33.068,28.769h-0.249c-0.27,0-0.509-0.362-0.509-0.687
		c0.148,0.165,0.304,0.236,0.516,0.236h1.142c0.102,0,0.204,0.079,0.248,0.21c0.032,0.097,0.014,0.241-0.004,0.382
		c-0.055-0.104-0.124-0.141-0.213-0.141h-0.26c0.062,0.075,0.099,0.171,0.099,0.277c0,0.24-0.195,0.435-0.435,0.435
		c-0.24,0-0.435-0.195-0.435-0.435C-33.168,28.939-33.131,28.843-33.068,28.769 M-34.476,34.211l0.138-0.271
		c0.027-0.052,0.038-0.108,0.037-0.163c-0.001-0.054-0.015-0.11-0.043-0.16l0.379,0.683c0.028,0.051,0.042,0.105,0.043,0.161
		c0.002,0.055-0.01,0.111-0.037,0.163l-0.034,0.067c-0.233,0.452-0.45,1.299-0.209,1.79c-0.562-0.209-0.747-0.701-0.687-1.109
		c-1.057-1.003-1.324-2.02-0.569-2.872l0.388-0.453c0.039-0.044,0.064-0.096,0.075-0.149c0.013-0.053,0.013-0.11-0.002-0.166
		l0.202,0.753c0.015,0.057,0.016,0.114,0.003,0.168c-0.012,0.053-0.037,0.105-0.075,0.149l-0.118,0.138
		c-0.395,0.46-0.289,1.083,0.33,1.642C-34.591,34.425-34.549,34.344-34.476,34.211 M-8.54,37.037
		c0.041-0.101,0.064-0.212,0.064-0.327c0-0.474-0.383-0.858-0.856-0.858h-0.866c-0.059,0.001-0.114-0.014-0.163-0.04
		c-0.048-0.025-0.092-0.063-0.125-0.111l-0.434-0.641c0.033,0.048,0.076,0.086,0.125,0.111c0.048,0.025,0.104,0.041,0.163,0.04
		l1.141,0.001c0.059,0,0.115,0.014,0.163,0.04c0.049,0.024,0.092,0.063,0.125,0.11l-0.524-0.767
		c-0.033-0.049-0.077-0.086-0.126-0.111c-0.048-0.026-0.104-0.041-0.162-0.041l-1.132,0.001c-0.058,0-0.114-0.014-0.162-0.04
		c-0.049-0.024-0.093-0.063-0.126-0.11l-0.492-0.726c0.033,0.049,0.077,0.086,0.125,0.111c0.049,0.025,0.104,0.041,0.163,0.041
		l1.136-0.001c0.059,0,0.115,0.014,0.163,0.04c0.049,0.024,0.092,0.062,0.125,0.11l-0.524-0.767
		c-0.033-0.049-0.077-0.086-0.126-0.112c-0.048-0.026-0.104-0.04-0.162-0.04h-0.903c-0.059,0-0.114-0.015-0.163-0.04
		c-0.048-0.026-0.092-0.063-0.125-0.112l-0.607-0.891c1.227-0.146,2.217-0.811,2.414-1.727c0.256-1.188-0.926-2.341-2.636-2.592
		c-0.288-0.042-0.508-0.289-0.508-0.588c0-0.254,0.16-0.472,0.385-0.556c-0.182-0.079-0.386-0.123-0.602-0.123
		c-0.756,0-1.37,0.542-1.37,1.211c0,0.12,0.021,0.237,0.058,0.347c-0.848,0.366-1.62,1.015-2.211,1.716
		c0.632-0.168,1.296-0.258,1.981-0.258c-0.003-0.032-0.005-0.064-0.005-0.097c0-0.513,0.415-0.928,0.928-0.928h0.013
		c-0.35,0.154-0.52,0.49-0.52,0.712c0,0.265,0.215,0.48,0.479,0.48c0.103,0,0.199-0.033,0.277-0.088
		c-0.018-0.06-0.028-0.124-0.028-0.191c0-0.367,0.297-0.664,0.665-0.664c0.032,0,0.065,0.002,0.096,0.007
		c-0.253,0.118-0.429,0.376-0.429,0.674c0,0.411,0.333,0.744,0.744,0.744c0.044,0,0.086-0.003,0.128-0.01
		c-0.012-0.044-0.018-0.089-0.018-0.136c0-0.295,0.239-0.534,0.533-0.534c0.295,0,0.534,0.239,0.534,0.534
		c0,0.641-0.712,0.7-1.231,0.551c-1.478-0.426-2.862-0.617-4.201-0.43c-1.718,0.242-4.532,1.403-7.519,1.306
		c-0.668-0.021-1.397-0.132-2.131-0.333c0.09,0.099,0.148,0.167,0.186,0.225c0.291,0.453,0.391,0.928,0.134,1.522
		c0.007-0.666-0.543-1.214-1.004-1.55c-0.186-0.135-0.261-0.264-0.23-0.437l0.136-0.768c-0.01,0.057-0.005,0.114,0.012,0.165
		c0.017,0.053,0.046,0.102,0.088,0.143l0.287,0.281c0.109-0.778-0.067-1.502-0.53-2.173c0.205-0.536,0.233-1.127,0.096-1.682
		c-0.054,0.42-0.26,0.6-0.455,0.722c-0.364,0.227-0.424,0.611-0.236,0.868c-0.306-0.156-0.73-0.726-0.485-1.058
		c0.264-0.359,0.987-0.19,1.076-0.806c-0.469-0.149-0.952-0.044-1.099-0.004c-0.278-0.319-0.647-0.477-1.106-0.474
		c-0.363-0.329-0.829-0.466-1.399-0.409c-0.569-0.057-1.035,0.08-1.398,0.409c-0.459-0.003-0.828,0.155-1.106,0.474
		c-0.148-0.04-0.63-0.145-1.1,0.004c0.089,0.616,0.812,0.447,1.076,0.806c0.245,0.332-0.178,0.902-0.485,1.058
		c0.189-0.257,0.128-0.641-0.236-0.868c-0.194-0.122-0.401-0.302-0.455-0.722c-0.137,0.555-0.108,1.146,0.096,1.682
		c-0.463,0.671-0.639,1.395-0.53,2.173l0.288-0.281c0.042-0.041,0.071-0.09,0.088-0.143c0.017-0.051,0.021-0.108,0.011-0.165
		l0.136,0.768c0.031,0.173-0.043,0.302-0.229,0.437c-0.462,0.336-1.012,0.884-1.005,1.55c-0.256-0.594-0.152-1.089,0.135-1.522
		c-0.876-0.473-1.543-1.25-1.666-1.392c-0.265-0.308-0.23-0.701,0.01-1.045c0.463-0.662,0.573-1.368-0.008-1.851
		c0.004-0.035,0.006-0.071,0.006-0.107c0-0.439-0.312-0.805-0.727-0.888c0.077,0.12,0.122,0.263,0.122,0.416
		c0,0.175-0.058,0.336-0.157,0.466c0.082,0.107,0.131,0.242,0.131,0.388c0,0.196-0.088,0.371-0.227,0.488
		c0.014-0.067,0.021-0.137,0.021-0.209c0-0.452-0.28-0.83-0.659-0.934c-0.061-0.328-0.349-0.577-0.695-0.577
		c-0.201,0-0.381,0.083-0.51,0.217c0.268,0.02,0.484,0.231,0.513,0.497c-0.128,0.096-0.231,0.228-0.298,0.384h0.017
		c0.463,0,0.838,0.375,0.838,0.838c0,0.052-0.005,0.104-0.014,0.154c-0.035-0.19-0.121-0.366-0.26-0.501
		c-0.26-0.254-0.638-0.307-0.984-0.175c-0.13-0.163-0.33-0.268-0.554-0.268c-0.254,0-0.476,0.133-0.601,0.333
		c0.256,0.011,0.481,0.14,0.622,0.335c-0.364,0.466-0.368,1.11,0.004,1.473c0.252,0.246,0.613,0.303,0.95,0.187
		c0.022-0.007,0.046-0.011,0.071-0.011c0.124,0,0.224,0.1,0.224,0.223s-0.1,0.223-0.224,0.223c-0.054,0-0.104-0.019-0.142-0.051
		c-0.085-0.071-0.195-0.113-0.314-0.113c-0.27,0-0.49,0.219-0.49,0.49c0,0.021,0.001,0.041,0.004,0.06
		c-0.046,0.015-0.095,0.023-0.146,0.023c-0.132,0-0.252-0.054-0.34-0.14c-0.014,0.053-0.021,0.109-0.021,0.167
		c0,0.345,0.266,0.628,0.605,0.654c0.152,0.378,0.523,0.644,0.955,0.644c0.222,0,0.427-0.07,0.595-0.188
		c0.074-0.051,0.162-0.082,0.258-0.082c0.249,0,0.451,0.202,0.451,0.451c0,0.215-0.15,0.394-0.351,0.44l-0.351,0.077
		c-0.057,0.013-0.115,0.01-0.168-0.005c-0.053-0.014-0.103-0.041-0.145-0.081l0.803,0.762c0.043,0.04,0.093,0.068,0.146,0.082
		c0.053,0.015,0.11,0.018,0.168,0.005l0.657-0.146c0.057-0.013,0.115-0.01,0.167,0.005c0.053,0.014,0.104,0.042,0.146,0.082
		l0.551,0.524c-0.043-0.04-0.093-0.068-0.146-0.082c-0.053-0.015-0.11-0.018-0.167-0.005l-0.657,0.146
		c-0.057,0.013-0.115,0.01-0.167-0.006c-0.053-0.014-0.104-0.041-0.146-0.081l0.736,0.697c0.042,0.041,0.093,0.068,0.145,0.083
		c0.053,0.016,0.111,0.018,0.168,0.004l0.658-0.144c0.058-0.014,0.115-0.01,0.168,0.005c0.053,0.014,0.103,0.042,0.146,0.082
		l0.551,0.523c-0.043-0.039-0.093-0.067-0.146-0.081c-0.053-0.016-0.11-0.018-0.168-0.006l-0.656,0.146
		c-0.058,0.013-0.115,0.01-0.168-0.005c-0.053-0.015-0.103-0.041-0.146-0.081l0.736,0.697c0.043,0.041,0.093,0.067,0.146,0.081
		c0.053,0.016,0.11,0.019,0.168,0.006l0.795-0.175c-0.772,0.437-1.594,0.931-2.465,1.481c-0.515,0.325-1.078,0.386-1.725,0.138
		c-0.347-0.133-0.725-0.153-0.963-0.113c-0.31,0.053-0.573,0.24-0.726,0.502c0.12-0.049,0.251-0.075,0.389-0.075
		c0.289,0,0.55,0.117,0.74,0.305c-0.301-0.126-0.675-0.139-1.038-0.006c-0.65,0.236-1.029,0.849-0.881,1.398
		c-0.242,0.093-0.413,0.327-0.413,0.602c0,0.181,0.074,0.345,0.194,0.462c0.064-0.288,0.316-0.505,0.621-0.516
		c0.127,0.084,0.275,0.143,0.434,0.175c0.048-0.083,0.109-0.158,0.179-0.221c-0.007-0.053-0.011-0.105-0.011-0.159
		c0-0.593,0.48-1.074,1.073-1.074c0.049,0,0.098,0.003,0.145,0.01c-0.471,0.113-0.822,0.537-0.822,1.044
		c0,0.064,0.006,0.127,0.017,0.188c-0.254,0.098-0.433,0.343-0.433,0.631c0,0.165,0.059,0.316,0.158,0.434
		c0.182-0.355,0.537-0.607,0.954-0.647c0.157,0.046,0.323,0.071,0.495,0.071c0.107,0,0.212-0.011,0.314-0.028
		c-0.092-0.135-0.146-0.297-0.146-0.472c0-0.462,0.374-0.835,0.835-0.835c0.04,0,0.079,0.004,0.118,0.009
		c-0.441,0.187-0.711,0.569-0.618,0.919c0.066,0.247,0.299,0.418,0.6,0.475c-0.004,0.186-0.055,0.359-0.142,0.51
		c0.387-0.027,0.718-0.261,0.883-0.592c0.456-0.183,0.737-0.574,0.643-0.929c-0.034-0.127-0.112-0.234-0.22-0.315
		c-0.001-0.012-0.002-0.024-0.002-0.037c0-0.243,0.199-0.442,0.443-0.442c0.245,0,0.443,0.199,0.443,0.442
		c0,0.116-0.044,0.222-0.117,0.301h0.927c0.058,0,0.114-0.016,0.162-0.041c0.049-0.025,0.092-0.063,0.125-0.112l0.595-0.882
		c0.022-0.033,0.052-0.059,0.085-0.076c0.033-0.017,0.071-0.028,0.111-0.028h0.728c-0.04,0-0.078,0.012-0.111,0.028
		c-0.033,0.018-0.063,0.043-0.085,0.076l-0.597,0.883c-0.033,0.048-0.076,0.086-0.125,0.111c-0.048,0.025-0.103,0.041-0.162,0.041
		h1.108c0.059,0,0.114-0.016,0.162-0.041c0.049-0.025,0.093-0.063,0.125-0.112l0.668-0.985c-0.461-0.252-0.65-0.692-0.65-1.299
		c0-0.377,0.212-0.807,0.244-1.084l0.013-0.11c0.007-0.059-0.001-0.114-0.021-0.165c-0.016-0.043-0.048-0.103-0.083-0.144
		l0.57,0.584c0.045,0.038,0.077,0.086,0.096,0.137c0.021,0.052,0.029,0.108,0.022,0.167l-0.017,0.134
		c-0.027,0.231-0.319,0.731,0.223,1.189c0.027,0.023,0.094,0.071,0.158,0.111l0.385,0.242v-1.421h0.539v1.58
		c0.001,0.06,0.018,0.114,0.045,0.162c0.027,0.047,0.065,0.09,0.115,0.121l0.527,0.335c0.05,0.031,0.105,0.049,0.159,0.054
		c0.055,0.004,0.112-0.005,0.165-0.027l0.971-0.422c-0.054,0.023-0.111,0.032-0.165,0.026c-0.055-0.004-0.11-0.021-0.159-0.052
		l-1.115-0.71c0.542-0.458,0.249-0.958,0.222-1.189l-0.016-0.134c-0.007-0.059,0.001-0.115,0.021-0.167
		c0.02-0.051,0.052-0.099,0.096-0.137l0.57-0.584c-0.035,0.041-0.066,0.101-0.082,0.144c-0.02,0.051-0.028,0.106-0.021,0.165
		l0.012,0.11c0.046,0.396,0.446,1.111,0.113,1.511l1.019,0.646c0.05,0.031,0.105,0.049,0.159,0.053
		c0.055,0.004,0.112-0.004,0.166-0.028l1.015-0.44c-0.054,0.022-0.11,0.031-0.164,0.027c-0.055-0.005-0.11-0.021-0.16-0.054
		l-1.102-0.701c0.24-0.49,0.038-1.272-0.195-1.725l-0.035-0.067c-0.026-0.052-0.038-0.108-0.036-0.163
		c0-0.056,0.014-0.11,0.043-0.161l0.378-0.683c-0.028,0.05-0.042,0.106-0.042,0.16c-0.002,0.055,0.01,0.111,0.036,0.163l0.139,0.271
		c0.073,0.133,0.114,0.214,0.178,0.37c0.62-0.559,0.758-1.098,0.363-1.557l-0.118-0.139c-0.038-0.044-0.063-0.096-0.075-0.149
		c-0.013-0.054-0.013-0.111,0.003-0.168l0.202-0.753c-0.015,0.056-0.015,0.113-0.003,0.166c0.012,0.053,0.037,0.105,0.076,0.149
		l0.388,0.453c0.754,0.852,0.298,1.95-0.602,2.788c0.05,0.16,0.093,0.461,0.057,0.624l1.195,0.759
		c0.05,0.031,0.105,0.049,0.16,0.053c0.054,0.005,0.111-0.004,0.165-0.027l0.864-0.376c-0.049,0.021-0.104,0.033-0.16,0.033
		c-0.223,0-0.403-0.18-0.403-0.402c0-0.18,0.117-0.335,0.281-0.384c3.299-1.004,6.336-3.594,8.33-3.588
		c0.969,0.004,1.755,0.59,1.755,1.317c0,0.116-0.021,0.23-0.059,0.34c-0.425,1.193,0.194,2.334,1.829,2.773
		c0.26,0.07,0.452,0.309,0.452,0.59c0,0.056-0.008,0.109-0.021,0.159c0.037,0.004,0.075,0.005,0.114,0.005
		c0.45,0,0.848-0.224,1.089-0.565c0.281-0.002,0.587-0.02,0.901-0.052c0.038,0.075,0.068,0.163,0.086,0.257
		c0.067,0.344-0.052,0.653-0.263,0.722c-0.375,0.122-0.835-0.023-1.19-0.021c-0.672,0.007-1.215,0.553-1.215,1.226
		c0,0.053,0.003,0.105,0.01,0.157c-0.211,0.131-0.351,0.365-0.351,0.631c0,0.133,0.035,0.258,0.096,0.366
		c0.207-0.241,0.476-0.429,0.783-0.536c0.026-0.59,0.512-1.061,1.108-1.061c0.091,0,0.181,0.012,0.265,0.032
		c-0.604,0.076-1.072,0.592-1.072,1.217c0,0.045,0.003,0.091,0.008,0.136c-0.075,0.09-0.12,0.207-0.12,0.333
		c0,0.16,0.072,0.305,0.185,0.401c0.114-0.25,0.389-0.484,0.745-0.604c0.239-0.08,0.474-0.097,0.67-0.057
		c-0.031-0.094-0.047-0.193-0.047-0.297c0-0.534,0.432-0.966,0.965-0.966c0.049,0,0.098,0.004,0.145,0.011
		c-0.372,0.052-0.658,0.369-0.658,0.754c0,0.257,0.126,0.482,0.319,0.621c0,0.014-0.001,0.027-0.001,0.041
		c0,0.21,0.096,0.396,0.247,0.52c0.067-0.351,0.374-0.614,0.744-0.614c0.316,0,0.577-0.04,0.772-0.104
		c0.33-0.108,0.571-0.413,0.571-0.778c0-0.253-0.115-0.479-0.296-0.628c0.089-0.41,0.073-1.083-0.066-1.644
		c0.028-0.004,0.057-0.006,0.087-0.006C-8.861,36.739-8.658,36.857-8.54,37.037 M-25.349,43.986
		c-0.018-0.09-0.016-0.181,0.003-0.272c0.038-0.177,0.194-0.309,0.382-0.309c0.216,0,0.39,0.175,0.39,0.392
		c0,0.103-0.04,0.196-0.105,0.267c0.073,0.007,0.148,0.011,0.226,0.011c0.201,0,0.392-0.024,0.56-0.069
		c0.275-0.074,0.477-0.325,0.477-0.623c0-0.356-0.289-0.645-0.645-0.645c-0.019,0-0.039,0-0.058,0.002
		c0.09-0.038,0.189-0.059,0.293-0.059c0.413,0,0.749,0.335,0.749,0.749c0,0.021-0.001,0.043-0.003,0.063
		c1.116-0.023,2.374-1.042,2.649-1.43c-0.35,0.08-0.729,0.124-1.125,0.124c-0.449,0-0.878-0.055-1.266-0.158
		c-0.549-0.145-1.089-0.226-1.504-0.226c-1.369,0-2.479,0.893-2.479,1.995c0,0.909,0.752,1.705,1.794,1.918
		c2.371,0.483,5.16-0.925,7.516-1.412c0.589-0.576,1.27-1.058,2.019-1.421c-0.022-0.086-0.034-0.177-0.034-0.269v-0.006
		c-3.126,0.514-5.939,2.118-8.479,2.105C-24.701,44.711-25.259,44.437-25.349,43.986 M-25.422,38.217
		c0.048,0,0.095,0.003,0.141,0.008c-0.468,0.135-0.846,0.483-1.021,0.934c-0.291,0.097-0.501,0.371-0.501,0.694
		c0,0.151,0.046,0.291,0.124,0.407c0.253-0.282,0.585-0.493,0.962-0.596c0.108-0.542,0.559-0.96,1.117-1.019
		c-0.487,0.204-0.829,0.686-0.829,1.247c0,0.199,0.043,0.387,0.12,0.557c0.086-0.309,0.369-0.536,0.705-0.536
		c0.085,0,0.166,0.015,0.241,0.041c0.104,0.038,0.217,0.059,0.334,0.059c0.541,0,0.979-0.439,0.979-0.981
		c0-0.107-0.017-0.212-0.049-0.31c0.257,0.075,0.446,0.313,0.446,0.595c0,0.129-0.04,0.248-0.107,0.348
		c0.072,0.014,0.146,0.02,0.222,0.02c0.637,0,1.163-0.479,1.236-1.096c0.32-0.175,0.601-0.408,0.843-0.7l0.17,0.829
		c0.012,0.058,0.009,0.114-0.007,0.168c-0.015,0.052-0.043,0.103-0.084,0.144l0.703-0.722c0.041-0.042,0.069-0.092,0.083-0.146
		c0.016-0.053,0.019-0.109,0.007-0.167l-0.207-1.012c-0.012-0.057-0.009-0.115,0.007-0.167c0.015-0.053,0.043-0.103,0.084-0.145
		l0.553-0.564c-0.041,0.042-0.069,0.092-0.084,0.146c-0.015,0.053-0.018,0.109-0.006,0.168l0.207,1.013
		c0.012,0.057,0.009,0.114-0.006,0.167c-0.015,0.052-0.042,0.101-0.082,0.143l0.627-0.651c0.04-0.042,0.068-0.093,0.083-0.145
		c0.016-0.053,0.019-0.11,0.007-0.168l-0.207-1.01c-0.012-0.057-0.009-0.115,0.007-0.167c0.015-0.053,0.043-0.104,0.084-0.146
		l0.553-0.563c-0.041,0.042-0.069,0.092-0.084,0.145c-0.015,0.054-0.018,0.11-0.006,0.167l0.208,1.014
		c0.012,0.057,0.008,0.114-0.007,0.167c-0.015,0.052-0.042,0.101-0.082,0.143l0.627-0.65c0.041-0.042,0.068-0.093,0.083-0.146
		c0.016-0.053,0.019-0.11,0.007-0.168l-0.101-0.494c-0.106-0.559,0.471-1.202,0.929-1.267c0.055-0.106,0.085-0.222,0.085-0.34
		c0-0.567-0.675-1.027-1.509-1.027c-0.407,0-0.777,0.11-1.049,0.289c0.109,0.323,0.132,0.651-0.937,0.803
		c-0.848,0.12-1.594,0.285-2.161,0.767c-0.874,0.74-0.803,1.731-1.3,2.106c0.221,0.054,0.502,0.054,0.803-0.011
		c0.19-0.041,0.366-0.104,0.521-0.182c-0.093,0.179-0.306,0.348-0.586,0.468c-0.092,0.35-0.403,0.684-0.823,0.84
		c-0.265,0.098-0.528,0.107-0.746,0.045l-1.023-0.296c-0.126-0.036-0.257-0.055-0.394-0.055c-0.754,0-1.376,0.58-1.468,1.331
		c-0.356,0.051-0.629,0.356-0.629,0.726c0,0.136,0.037,0.262,0.101,0.371c0.245-0.249,0.556-0.435,0.904-0.528
		C-26.458,38.595-25.984,38.217-25.422,38.217 M-30.862,47.548c0.062-0.334,0.088-0.658,0.076-0.971l-0.299,0.351
		c-0.059-0.141-0.098-0.226-0.138-0.294c-0.033-0.058-0.061-0.097-0.1-0.104c-0.02,0.01-0.05,0.026-0.083,0.034
		c-0.038,0.009-0.09,0.006-0.122,0.006c-0.031,0-0.083,0.003-0.122-0.006c-0.032-0.008-0.062-0.024-0.082-0.034
		c-0.04,0.007-0.067,0.046-0.1,0.104c-0.04,0.068-0.079,0.153-0.138,0.294l-0.3-0.351c-0.011,0.313,0.014,0.637,0.077,0.971
		c0.221-0.05,0.449-0.066,0.665-0.066C-31.312,47.481-31.084,47.498-30.862,47.548 M-30.729,48.446
		c0.034-0.379-0.397-0.514-0.799-0.514c-0.402,0-0.832,0.135-0.799,0.514c0.041,0.462,0.473,0.242,0.799,0.244
		C-31.202,48.688-30.77,48.908-30.729,48.446 M-29.581,45.717c-0.079,0.021-0.122,0.067-0.131,0.15
		c-0.047,0.446-0.228,0.626-0.517,0.728c-0.004,0.45-0.066,0.79-0.188,1.212c0.343,0.717,0.08,1.218-0.198,1.325
		c-0.265,0.103-0.607-0.035-0.91-0.035c-0.303,0-0.65,0.138-0.915,0.035c-0.279-0.107-0.541-0.608-0.199-1.325
		c-0.121-0.422-0.184-0.762-0.187-1.212c-0.289-0.102-0.471-0.281-0.518-0.728c-0.009-0.083-0.052-0.129-0.13-0.15
		c-1.14-0.313-1.248-1.729-0.671-2.129c-0.051,0.634-0.106,1.528,1.19,1.647c-0.021,0.744,0.301,0.943,0.632,0.943
		c0.271,0,0.426-0.087,0.494-0.123c0.241-0.128,0.075-0.323,0.013-0.381c-0.166-0.155-0.25-0.375-0.21-0.595
		c0.007-0.04,0.022-0.06,0.059-0.06h0.439h0.439c0.037,0,0.053,0.02,0.06,0.06c0.039,0.22-0.045,0.439-0.21,0.595
		c-0.062,0.058-0.228,0.253,0.013,0.381c0.067,0.036,0.223,0.123,0.494,0.123c0.331,0,0.653-0.199,0.632-0.943
		c1.296-0.119,1.241-1.014,1.19-1.647C-28.333,43.988-28.442,45.404-29.581,45.717 M-29.23,43.245c0,0.326-0.238,0.688-0.509,0.688
		h-0.248c0.062,0.075,0.1,0.171,0.1,0.277c0,0.239-0.195,0.435-0.435,0.435c-0.241,0-0.436-0.195-0.436-0.435
		c0-0.106,0.038-0.202,0.1-0.277h-0.26c-0.089,0-0.158,0.036-0.213,0.14c-0.018-0.14-0.036-0.284-0.004-0.381
		c0.044-0.131,0.146-0.21,0.248-0.21h1.142C-29.534,43.482-29.377,43.411-29.23,43.245 M-29.381,42.705h-0.398
		c-0.199,0-0.336-0.081-0.452-0.215l-0.455-0.594c-0.075-0.094-0.134-0.16-0.232-0.204h0.45c0.135,0,0.255,0.06,0.349,0.179
		l0.474,0.604C-29.539,42.603-29.506,42.688-29.381,42.705 M-31.462,41.725l0.582,0.818c0.092,0.134,0.179,0.209,0.304,0.26h-0.533
		c-0.205,0-0.328-0.095-0.418-0.242l-0.458-0.702c-0.175-0.263-0.244-0.329-0.445-0.4h0.495
		C-31.74,41.458-31.558,41.586-31.462,41.725 M-32.781,41.871l0.474,0.604c0.106,0.128,0.139,0.213,0.264,0.23h-0.398
		c-0.199,0-0.336-0.081-0.452-0.215l-0.455-0.594c-0.075-0.094-0.134-0.16-0.232-0.204h0.45
		C-32.995,41.692-32.875,41.752-32.781,41.871 M-33.068,43.934h-0.249c-0.27,0-0.509-0.362-0.509-0.688
		c0.148,0.166,0.304,0.237,0.516,0.237h1.142c0.102,0,0.204,0.079,0.248,0.21c0.032,0.097,0.014,0.241-0.004,0.381
		c-0.055-0.104-0.124-0.14-0.213-0.14h-0.26c0.062,0.075,0.099,0.171,0.099,0.277c0,0.239-0.195,0.435-0.435,0.435
		c-0.24,0-0.435-0.195-0.435-0.435C-33.168,44.104-33.131,44.009-33.068,43.934 M-34.476,49.376l0.138-0.271
		c0.027-0.052,0.038-0.108,0.037-0.163c-0.001-0.054-0.015-0.11-0.043-0.161l0.379,0.683c0.028,0.052,0.042,0.106,0.043,0.161
		c0.002,0.056-0.01,0.111-0.037,0.164l-0.034,0.067c-0.233,0.452-0.45,1.299-0.209,1.79c-0.562-0.209-0.747-0.701-0.687-1.11
		c-1.057-1.003-1.324-2.019-0.569-2.871l0.388-0.452c0.039-0.044,0.064-0.097,0.075-0.149c0.013-0.053,0.013-0.11-0.002-0.166
		l0.202,0.753c0.015,0.057,0.016,0.114,0.003,0.167c-0.012,0.054-0.037,0.106-0.075,0.15l-0.118,0.138
		c-0.395,0.46-0.289,1.083,0.33,1.642C-34.591,49.59-34.549,49.509-34.476,49.376 M-8.54,52.202
		c0.041-0.101,0.064-0.212,0.064-0.328c0-0.473-0.383-0.857-0.856-0.857h-0.866c-0.059,0-0.114-0.014-0.163-0.04
		c-0.048-0.025-0.092-0.063-0.125-0.111l-0.434-0.641c0.033,0.048,0.076,0.086,0.125,0.111c0.048,0.025,0.104,0.041,0.163,0.04
		l1.141,0.001c0.059,0,0.115,0.014,0.163,0.039c0.049,0.025,0.092,0.063,0.125,0.111l-0.524-0.768
		c-0.033-0.048-0.077-0.085-0.126-0.111c-0.048-0.025-0.104-0.04-0.162-0.04l-1.132,0.001c-0.058,0-0.114-0.015-0.162-0.04
		c-0.049-0.025-0.093-0.063-0.126-0.112l-0.492-0.724c0.033,0.049,0.077,0.086,0.125,0.111c0.049,0.025,0.104,0.041,0.163,0.04
		h1.136c0.059-0.001,0.115,0.014,0.163,0.04c0.049,0.024,0.092,0.062,0.125,0.11l-0.524-0.768c-0.033-0.048-0.077-0.086-0.126-0.111
		c-0.048-0.025-0.104-0.04-0.162-0.04h-0.903c-0.059,0-0.114-0.015-0.163-0.041c-0.048-0.024-0.092-0.062-0.125-0.11l-0.607-0.892
		c1.227-0.146,2.217-0.811,2.414-1.727c0.256-1.189-0.926-2.341-2.636-2.592c-0.288-0.042-0.508-0.289-0.508-0.589
		c0-0.255,0.16-0.472,0.385-0.557c-0.182-0.078-0.386-0.122-0.602-0.122c-0.756,0-1.37,0.542-1.37,1.211
		c0,0.12,0.021,0.237,0.058,0.348c-0.848,0.365-1.62,1.015-2.211,1.716c0.632-0.168,1.296-0.258,1.981-0.258
		c-0.003-0.032-0.005-0.064-0.005-0.098c0-0.513,0.415-0.928,0.928-0.928h0.013c-0.35,0.154-0.52,0.49-0.52,0.712
		c0,0.265,0.215,0.479,0.479,0.479c0.103,0,0.199-0.032,0.277-0.088c-0.018-0.061-0.028-0.124-0.028-0.19
		c0-0.367,0.297-0.664,0.665-0.664c0.032,0,0.065,0.002,0.096,0.007c-0.253,0.118-0.429,0.376-0.429,0.674
		c0,0.411,0.333,0.744,0.744,0.744c0.044,0,0.086-0.003,0.128-0.011c-0.012-0.043-0.018-0.088-0.018-0.135
		c0-0.295,0.239-0.534,0.533-0.534c0.295,0,0.534,0.239,0.534,0.534c0,0.641-0.712,0.699-1.231,0.551
		c-1.478-0.426-2.862-0.617-4.201-0.43c-1.718,0.24-4.532,1.402-7.519,1.306c-0.668-0.021-1.397-0.132-2.131-0.333
		c0.09,0.098,0.148,0.167,0.186,0.225c0.291,0.453,0.391,0.929,0.134,1.522c0.007-0.666-0.543-1.214-1.004-1.55
		c-0.186-0.136-0.261-0.265-0.23-0.438l0.136-0.768c-0.01,0.057-0.005,0.113,0.012,0.165c0.017,0.053,0.046,0.102,0.088,0.143
		l0.287,0.281c0.109-0.778-0.067-1.502-0.53-2.173c0.205-0.536,0.233-1.127,0.096-1.683c-0.054,0.42-0.26,0.601-0.455,0.723
		c-0.364,0.227-0.424,0.61-0.236,0.867c-0.306-0.156-0.73-0.726-0.485-1.058c0.264-0.359,0.987-0.189,1.076-0.806
		c-0.469-0.149-0.952-0.044-1.099-0.004c-0.278-0.319-0.647-0.478-1.106-0.475c-0.363-0.33-0.829-0.466-1.399-0.409
		c-0.569-0.057-1.035,0.079-1.398,0.409c-0.459-0.003-0.828,0.155-1.106,0.475c-0.148-0.04-0.63-0.146-1.1,0.004
		c0.089,0.616,0.812,0.446,1.076,0.806c0.245,0.332-0.178,0.901-0.485,1.058c0.189-0.257,0.128-0.641-0.236-0.867
		c-0.194-0.122-0.401-0.303-0.455-0.723c-0.137,0.556-0.108,1.146,0.096,1.683c-0.463,0.671-0.639,1.395-0.53,2.173l0.288-0.281
		c0.042-0.041,0.071-0.09,0.088-0.143c0.017-0.052,0.021-0.108,0.011-0.165l0.136,0.768c0.031,0.173-0.043,0.302-0.229,0.438
		c-0.462,0.336-1.012,0.884-1.005,1.55c-0.256-0.594-0.152-1.089,0.135-1.522c-0.876-0.473-1.543-1.25-1.666-1.392
		c-0.265-0.308-0.23-0.701,0.01-1.045c0.463-0.663,0.573-1.368-0.008-1.852c0.004-0.034,0.006-0.07,0.006-0.106
		c0-0.439-0.312-0.805-0.727-0.888c0.077,0.119,0.122,0.263,0.122,0.415c0,0.176-0.058,0.337-0.157,0.466
		c0.082,0.107,0.131,0.242,0.131,0.389c0,0.196-0.088,0.371-0.227,0.488c0.014-0.067,0.021-0.139,0.021-0.209
		c0-0.452-0.28-0.83-0.659-0.935c-0.061-0.328-0.349-0.577-0.695-0.577c-0.201,0-0.381,0.083-0.51,0.218
		c0.268,0.02,0.484,0.23,0.513,0.497c-0.128,0.096-0.231,0.228-0.298,0.384h0.017c0.463,0,0.838,0.375,0.838,0.838
		c0,0.052-0.005,0.104-0.014,0.154c-0.035-0.191-0.121-0.366-0.26-0.502c-0.26-0.254-0.638-0.307-0.984-0.175
		c-0.13-0.163-0.33-0.268-0.554-0.268c-0.254,0-0.476,0.133-0.601,0.333c0.256,0.011,0.481,0.14,0.622,0.335
		c-0.364,0.466-0.368,1.11,0.004,1.473c0.252,0.246,0.613,0.304,0.95,0.188c0.022-0.008,0.046-0.012,0.071-0.012
		c0.124,0,0.224,0.1,0.224,0.224c0,0.123-0.1,0.223-0.224,0.223c-0.054,0-0.104-0.019-0.142-0.051
		c-0.085-0.071-0.195-0.113-0.314-0.113c-0.27,0-0.49,0.22-0.49,0.49c0,0.021,0.001,0.041,0.004,0.061
		c-0.046,0.015-0.095,0.022-0.146,0.022c-0.132,0-0.252-0.054-0.34-0.14c-0.014,0.053-0.021,0.108-0.021,0.167
		c0,0.345,0.266,0.628,0.605,0.653c0.152,0.378,0.523,0.645,0.955,0.645c0.222,0,0.427-0.07,0.595-0.188
		c0.074-0.052,0.162-0.082,0.258-0.082c0.249,0,0.451,0.202,0.451,0.451c0,0.215-0.15,0.395-0.351,0.439l-0.351,0.078
		c-0.057,0.013-0.115,0.01-0.168-0.006c-0.053-0.014-0.103-0.04-0.145-0.081l0.803,0.763c0.043,0.04,0.093,0.067,0.146,0.082
		c0.053,0.015,0.11,0.018,0.168,0.005l0.657-0.146c0.057-0.013,0.115-0.01,0.167,0.006c0.053,0.014,0.104,0.041,0.146,0.082
		l0.551,0.523c-0.043-0.041-0.093-0.068-0.146-0.082c-0.053-0.015-0.11-0.018-0.167-0.005l-0.657,0.145
		c-0.057,0.014-0.115,0.011-0.167-0.005c-0.053-0.014-0.104-0.041-0.146-0.081l0.736,0.697c0.042,0.041,0.093,0.068,0.145,0.082
		c0.053,0.015,0.111,0.019,0.168,0.005l0.658-0.144c0.058-0.014,0.115-0.01,0.168,0.005c0.053,0.014,0.103,0.042,0.146,0.082
		l0.551,0.523c-0.043-0.04-0.093-0.067-0.146-0.082c-0.053-0.015-0.11-0.018-0.168-0.005l-0.656,0.146
		c-0.058,0.013-0.115,0.01-0.168-0.005c-0.053-0.015-0.103-0.041-0.146-0.082l0.736,0.697c0.043,0.041,0.093,0.068,0.146,0.082
		c0.053,0.016,0.11,0.019,0.168,0.006l0.795-0.175c-0.772,0.437-1.594,0.931-2.465,1.481c-0.515,0.325-1.078,0.386-1.725,0.138
		c-0.347-0.133-0.725-0.154-0.963-0.113c-0.31,0.053-0.573,0.24-0.726,0.502c0.12-0.05,0.251-0.075,0.389-0.075
		c0.289,0,0.55,0.117,0.74,0.305c-0.301-0.126-0.675-0.139-1.038-0.007c-0.65,0.237-1.029,0.85-0.881,1.397
		c-0.242,0.095-0.413,0.328-0.413,0.604c0,0.181,0.074,0.344,0.194,0.462c0.064-0.288,0.316-0.505,0.621-0.516
		c0.127,0.084,0.275,0.143,0.434,0.175c0.048-0.083,0.109-0.158,0.179-0.221c-0.007-0.053-0.011-0.105-0.011-0.159
		c0-0.594,0.48-1.074,1.073-1.074c0.049,0,0.098,0.003,0.145,0.01c-0.471,0.113-0.822,0.537-0.822,1.044
		c0,0.064,0.006,0.127,0.017,0.188c-0.254,0.097-0.433,0.343-0.433,0.631c0,0.165,0.059,0.315,0.158,0.434
		c0.182-0.355,0.537-0.607,0.954-0.647c0.157,0.046,0.323,0.07,0.495,0.07c0.107,0,0.212-0.01,0.314-0.027
		c-0.092-0.135-0.146-0.297-0.146-0.473c0-0.461,0.374-0.835,0.835-0.835c0.04,0,0.079,0.004,0.118,0.01
		c-0.441,0.187-0.711,0.569-0.618,0.918c0.066,0.248,0.299,0.419,0.6,0.475c-0.004,0.187-0.055,0.36-0.142,0.511
		c0.387-0.027,0.718-0.262,0.883-0.592c0.456-0.183,0.737-0.574,0.643-0.929c-0.034-0.127-0.112-0.234-0.22-0.316
		c-0.001-0.012-0.002-0.023-0.002-0.036c0-0.243,0.199-0.442,0.443-0.442c0.245,0,0.443,0.199,0.443,0.442
		c0,0.116-0.044,0.222-0.117,0.301h0.927c0.058,0,0.114-0.016,0.162-0.041c0.049-0.025,0.092-0.063,0.125-0.112l0.595-0.882
		c0.022-0.033,0.052-0.059,0.085-0.076c0.033-0.019,0.071-0.028,0.111-0.028h0.728c-0.04,0-0.078,0.01-0.111,0.028
		c-0.033,0.018-0.063,0.043-0.085,0.076l-0.597,0.882c-0.033,0.049-0.076,0.087-0.125,0.112c-0.048,0.025-0.103,0.041-0.162,0.041
		h1.108c0.059,0,0.114-0.016,0.162-0.041c0.049-0.025,0.093-0.063,0.125-0.112l0.668-0.985c-0.461-0.252-0.65-0.692-0.65-1.299
		c0-0.377,0.212-0.807,0.244-1.084l0.013-0.11c0.007-0.059-0.001-0.115-0.021-0.167c-0.016-0.041-0.048-0.101-0.083-0.142
		l0.57,0.584c0.045,0.038,0.077,0.086,0.096,0.137c0.021,0.052,0.029,0.108,0.022,0.166l-0.017,0.135
		c-0.027,0.231-0.319,0.731,0.223,1.189c0.027,0.023,0.094,0.07,0.158,0.111l0.385,0.242V51.29h0.539v1.581
		c0.001,0.06,0.018,0.114,0.045,0.161c0.027,0.048,0.065,0.091,0.115,0.122l0.527,0.335c0.05,0.031,0.105,0.049,0.159,0.054
		c0.055,0.004,0.112-0.005,0.165-0.028l0.971-0.421c-0.054,0.022-0.111,0.032-0.165,0.026c-0.055-0.004-0.11-0.021-0.159-0.053
		l-1.115-0.709c0.542-0.458,0.249-0.958,0.222-1.189l-0.016-0.135c-0.007-0.058,0.001-0.114,0.021-0.166
		c0.02-0.051,0.052-0.099,0.096-0.137l0.57-0.584c-0.035,0.041-0.066,0.101-0.082,0.142c-0.02,0.052-0.028,0.108-0.021,0.167
		l0.012,0.11c0.046,0.396,0.446,1.111,0.113,1.51l1.019,0.647c0.05,0.031,0.105,0.048,0.159,0.052
		c0.055,0.005,0.112-0.003,0.166-0.027l1.015-0.44c-0.054,0.022-0.11,0.031-0.164,0.027c-0.055-0.005-0.11-0.022-0.16-0.054
		l-1.102-0.701c0.24-0.491,0.038-1.272-0.195-1.725l-0.035-0.067c-0.026-0.053-0.038-0.108-0.036-0.164
		c0-0.055,0.014-0.109,0.043-0.161l0.378-0.683c-0.028,0.051-0.042,0.107-0.042,0.161c-0.002,0.055,0.01,0.111,0.036,0.163
		l0.139,0.271c0.073,0.133,0.114,0.214,0.178,0.37c0.62-0.559,0.758-1.098,0.363-1.558l-0.118-0.138
		c-0.038-0.044-0.063-0.097-0.075-0.15c-0.013-0.053-0.013-0.11,0.003-0.167l0.202-0.753c-0.015,0.056-0.015,0.113-0.003,0.166
		c0.012,0.053,0.037,0.105,0.076,0.149l0.388,0.452c0.754,0.853,0.298,1.95-0.602,2.787c0.05,0.161,0.093,0.462,0.057,0.625
		l1.195,0.759c0.05,0.031,0.105,0.049,0.16,0.053c0.054,0.005,0.111-0.004,0.165-0.027l0.864-0.376
		c-0.049,0.021-0.104,0.033-0.16,0.033c-0.223,0-0.403-0.18-0.403-0.402c0-0.18,0.117-0.335,0.281-0.384
		c3.299-1.004,6.336-3.594,8.33-3.588c0.969,0.003,1.755,0.59,1.755,1.317c0,0.116-0.021,0.23-0.059,0.34
		c-0.425,1.193,0.194,2.334,1.829,2.772c0.26,0.071,0.452,0.31,0.452,0.591c0,0.056-0.008,0.109-0.021,0.159
		c0.037,0.004,0.075,0.005,0.114,0.005c0.45,0,0.848-0.224,1.089-0.565c0.281-0.002,0.587-0.02,0.901-0.052
		c0.038,0.075,0.068,0.162,0.086,0.257c0.067,0.343-0.052,0.653-0.263,0.722c-0.375,0.122-0.835-0.024-1.19-0.021
		c-0.672,0.007-1.215,0.553-1.215,1.226c0,0.053,0.003,0.104,0.01,0.156c-0.211,0.132-0.351,0.366-0.351,0.632
		c0,0.133,0.035,0.258,0.096,0.366c0.207-0.242,0.476-0.429,0.783-0.536c0.026-0.59,0.512-1.061,1.108-1.061
		c0.091,0,0.181,0.012,0.265,0.032c-0.604,0.076-1.072,0.592-1.072,1.217c0,0.045,0.003,0.091,0.008,0.136
		c-0.075,0.09-0.12,0.207-0.12,0.333c0,0.16,0.072,0.305,0.185,0.4c0.114-0.249,0.389-0.483,0.745-0.604
		c0.239-0.08,0.474-0.097,0.67-0.057c-0.031-0.094-0.047-0.193-0.047-0.298c0-0.533,0.432-0.965,0.965-0.965
		c0.049,0,0.098,0.004,0.145,0.011c-0.372,0.051-0.658,0.369-0.658,0.754c0,0.257,0.126,0.482,0.319,0.62
		c0,0.015-0.001,0.028-0.001,0.042c0,0.209,0.096,0.396,0.247,0.52c0.067-0.351,0.374-0.614,0.744-0.614
		c0.316,0,0.577-0.04,0.772-0.104c0.33-0.108,0.571-0.413,0.571-0.778c0-0.253-0.115-0.479-0.296-0.628
		c0.089-0.41,0.073-1.083-0.066-1.644c0.028-0.004,0.057-0.006,0.087-0.006C-8.861,51.904-8.658,52.022-8.54,52.202 M3.43-1.016
		H2.296v68.031H3.43V-1.016z"/>
	<path fill="#FFFFFF" d="M88.714,30.278h-4.96v0.957h1.834v6.284h1.255v-6.284h1.871V30.278z M82.02,33.274h-2.666v-2.039h3.12
		v-0.957h-4.376v7.241h4.376v-0.957h-3.12v-2.331h2.666V33.274z M71.224,30.278h-1.585v7.241h1.255v-4.78l0.037-0.006l1.561,4.786
		h0.852l1.554-4.755l0.037,0.006v4.749h1.262v-7.241h-1.579l-1.684,5.693h-0.037L71.224,30.278z M65.3,32.043h0.036l0.914,2.884
		h-1.857L65.3,32.043z M67.071,37.52h1.317l-2.411-7.241h-1.299l-2.425,7.241h1.323l0.517-1.635h2.456L67.071,37.52z M60.688,33.274
		h-2.666v-2.039h3.12v-0.957h-4.376v7.241h4.376v-0.957h-3.12v-2.331h2.666V33.274z M54.596,33.274h-2.667v-2.039h3.121v-0.957
		h-4.376v7.241h4.376v-0.957h-3.121v-2.331h2.667V33.274z M49.213,30.278h-4.96v0.957h1.834v6.284h1.255v-6.284h1.871V30.278z
		 M42.774,30.278h-1.262v4.997l-0.037,0.013l-2.778-5.01h-1.256v7.241h1.256v-5.004l0.037-0.012l2.778,5.016h1.262V30.278z
		 M33.104,32.043h0.037l0.914,2.884h-1.859L33.104,32.043z M34.875,37.52h1.318l-2.412-7.241h-1.299l-2.424,7.241h1.324l0.516-1.635
		h2.455L34.875,37.52z M26.067,32.043h0.037l0.914,2.884h-1.859L26.067,32.043z M27.838,37.52h1.318l-2.412-7.241h-1.299
		l-2.424,7.241h1.324l0.516-1.635h2.455L27.838,37.52z M14.202,28.47v9.05h1.249v-3.474l-0.118-3.476l0.038-0.006l2.169,6.955h0.833
		l2.175-6.961l0.038,0.006l-0.112,3.481v3.474h1.249v-9.05h-1.628l-2.12,7.384h-0.037l-2.114-7.384H14.202z"/>
</g>
</svg>
