<?xml version="1.0" encoding="utf-8"?>
<!-- Generator: Adobe Illustrator 16.0.0, SVG Export Plug-In . SVG Version: 6.00 Build 0)  -->
<!DOCTYPE svg PUBLIC "-//W3C//DTD SVG 1.1//EN" "http://www.w3.org/Graphics/SVG/1.1/DTD/svg11.dtd">
<svg version="1.1" id="Layer_1" xmlns="http://www.w3.org/2000/svg" xmlns:xlink="http://www.w3.org/1999/xlink" x="0px" y="0px"
	 width="66px" height="66px" viewBox="0 0 66 66" enable-background="new 0 0 66 66" xml:space="preserve">
<g>
	<path fill="#FFF200" d="M21.419,25.336c1.454,0,2.696,0.502,3.729,1.509c1.033,1.005,1.549,2.343,1.549,4.014
		c0,1.672-0.514,3.031-1.539,4.076c-1.026,1.047-2.222,1.57-3.586,1.57c-1.366,0-2.592-0.598-3.679-1.793v5.584H15.61V25.5h2.283
		v1.896C18.789,26.023,19.965,25.336,21.419,25.336z M17.852,30.941c0,1.033,0.313,1.879,0.938,2.538
		c0.625,0.657,1.386,0.989,2.282,0.989c0.897,0,1.679-0.328,2.345-0.98c0.665-0.651,0.998-1.498,0.998-2.538
		c0-1.039-0.325-1.902-0.979-2.588c-0.651-0.686-1.434-1.029-2.343-1.029c-0.91,0-1.679,0.344-2.303,1.029
		C18.164,29.049,17.852,29.909,17.852,30.941z"/>
	<path fill="#FFF200" d="M30.671,40.664c-0.992,0-1.889-0.361-2.689-1.082l1.038-1.854c0.476,0.449,0.968,0.672,1.478,0.672
		c0.51,0,0.924-0.182,1.244-0.549c0.319-0.367,0.479-0.77,0.479-1.203c0-0.189-1.461-3.907-4.381-11.149h2.445l3.24,7.989
		l3.241-7.989h2.445l-5.257,12.881c-0.313,0.705-0.762,1.264-1.346,1.672S31.377,40.664,30.671,40.664z"/>
	<path fill="#FFF200" d="M45.813,36.506c-1.507,0-2.805-0.512-3.893-1.539c-1.088-1.026-1.629-2.368-1.629-4.025
		c0-1.657,0.566-3.006,1.701-4.046c1.134-1.04,2.518-1.559,4.148-1.559c1.629,0,3.009,0.564,4.137,1.691l-1.346,1.651
		c-0.937-0.815-1.882-1.222-2.833-1.222s-1.776,0.315-2.477,0.948c-0.699,0.631-1.049,1.446-1.049,2.445
		c0,0.998,0.347,1.843,1.038,2.537c0.694,0.693,1.546,1.041,2.559,1.041c1.012,0,1.968-0.463,2.863-1.387l1.344,1.467
		C49.06,35.84,47.538,36.506,45.813,36.506z"/>
</g>
<circle fill="none" stroke="#FFF200" stroke-width="2.1925" stroke-miterlimit="10" cx="33" cy="33" r="31.703"/>
</svg>
